<svg width="26" height="26" viewBox="0 0 26 26" fill="none" xmlns="http://www.w3.org/2000/svg">
<path d="M21.19 9.68496C20.8854 9.38066 20.4723 9.20973 20.0417 9.20973C19.6111 9.20973 19.1981 9.38066 18.8934 9.68496L13 15.5783L7.10671 9.68496C6.79867 9.39792 6.39123 9.24166 5.97025 9.24909C5.54926 9.25651 5.14759 9.42706 4.84987 9.72478C4.55214 10.0225 4.38159 10.4242 4.37417 10.8452C4.36674 11.2662 4.52301 11.6736 4.81005 11.9816L11.8517 19.0233C12.1564 19.3276 12.5694 19.4985 13 19.4985C13.4307 19.4985 13.8437 19.3276 14.1484 19.0233L21.19 11.9816C21.4944 11.6769 21.6653 11.2639 21.6653 10.8333C21.6653 10.4027 21.4944 9.98965 21.19 9.68496Z" fill="white"/>
</svg>
