<svg width="11" height="11" viewBox="0 0 11 11" fill="none" xmlns="http://www.w3.org/2000/svg">
<g clip-path="url(#clip0_15_92)">
<path d="M5.53444 10.0834C4.89277 10.0834 4.29129 9.96119 3.72998 9.71675C3.16868 9.4723 2.67979 9.14185 2.26331 8.72537C1.84684 8.30921 1.51638 7.82032 1.27194 7.25871C1.0275 6.6971 0.905273 6.09561 0.905273 5.45425C0.905273 4.33897 1.26048 3.35539 1.9709 2.5035C2.68131 1.65161 3.58652 1.12269 4.68652 0.916748C4.54902 1.673 4.59104 2.41214 4.81256 3.13416C5.03409 3.85619 5.41604 4.48823 5.9584 5.03029C6.50076 5.57265 7.13295 5.9546 7.85498 6.17612C8.57701 6.39765 9.31599 6.43966 10.0719 6.30217C9.87333 7.40216 9.34624 8.30737 8.49069 9.01779C7.63513 9.72821 6.64972 10.0834 5.53444 10.0834ZM8.25006 4.58341L7.67715 3.323L6.41673 2.75008L7.67715 2.17716L8.25006 0.916748L8.82298 2.17716L10.0834 2.75008L8.82298 3.323L8.25006 4.58341Z" fill="#54565A"/>
</g>
<defs>
<clipPath id="clip0_15_92">
<rect width="11" height="11" fill="white"/>
</clipPath>
</defs>
</svg>
