<svg width="12" height="12" viewBox="0 0 12 12" fill="none" xmlns="http://www.w3.org/2000/svg">
<path d="M1.5 6C1.5 6.39782 1.65804 6.77936 1.93934 7.06066C2.22064 7.34196 2.60218 7.5 3 7.5C3.39782 7.5 3.77936 7.34196 4.06066 7.06066C4.34196 6.77936 4.5 6.39782 4.5 6C4.5 5.60218 4.34196 5.22064 4.06066 4.93934C3.77936 4.65804 3.39782 4.5 3 4.5C2.60218 4.5 2.22064 4.65804 1.93934 4.93934C1.65804 5.22064 1.5 5.60218 1.5 6ZM7.5 6C7.5 6.39782 7.65804 6.77936 7.93934 7.06066C8.22064 7.34196 8.60218 7.5 9 7.5C9.39782 7.5 9.77936 7.34196 10.0607 7.06066C10.342 6.77936 10.5 6.39782 10.5 6C10.5 5.60218 10.342 5.22064 10.0607 4.93934C9.77936 4.65804 9.39782 4.5 9 4.5C8.60218 4.5 8.22064 4.65804 7.93934 4.93934C7.65804 5.22064 7.5 5.60218 7.5 6Z" stroke="#54565A" stroke-width="1.3" stroke-linecap="round" stroke-linejoin="round"/>
<path d="M1.50006 5.99989C1.42622 5.43776 1.57877 4.87282 1.94272 4.36064C2.30666 3.84845 2.86946 3.40668 3.57574 3.07876C4.28203 2.75084 5.10748 2.54807 5.9709 2.49041C6.83431 2.43275 7.70595 2.52217 8.50006 2.74989M10.5001 5.99989C10.5739 6.56201 10.4214 7.12695 10.0574 7.63914C9.69347 8.15132 9.13067 8.5931 8.42438 8.92102C7.71809 9.24894 6.89264 9.4517 6.02923 9.50936C5.16582 9.56702 4.29418 9.4776 3.50006 9.24989" stroke="#54565A" stroke-width="1.3" stroke-linecap="round" stroke-linejoin="round"/>
</svg>
