<svg width="21" height="21" viewBox="0 0 21 21" fill="none" xmlns="http://www.w3.org/2000/svg">
<path d="M1.31246 9.18752C1.31085 7.18984 2.06851 5.2662 3.432 3.80619C4.7955 2.34618 6.6629 1.45893 8.65603 1.32412C10.6492 1.18931 12.619 1.81702 14.1667 3.08012C15.7144 4.34323 16.7242 6.14732 16.9916 8.12702C16.5438 8.00565 16.0854 7.92785 15.6227 7.89471C15.4354 6.95721 15.0457 6.07193 14.4807 5.30073C13.9157 4.52953 13.1891 3.89103 12.3516 3.42986C11.5142 2.96869 10.5862 2.69598 9.63239 2.63078C8.6786 2.56559 7.72208 2.70949 6.82969 3.05243C5.9373 3.39536 5.13058 3.92906 4.46591 4.61621C3.80124 5.30335 3.29466 6.12738 2.98159 7.03067C2.66851 7.93397 2.55649 8.89474 2.65336 9.84584C2.75023 10.7969 3.05364 11.7154 3.5424 12.537C3.58812 12.6139 3.61765 12.6993 3.62916 12.788C3.64067 12.8767 3.63392 12.9668 3.60934 13.0528L2.94128 15.3891L5.1174 14.6646C5.20982 14.6337 5.30795 14.6239 5.40466 14.6357C5.50137 14.6475 5.59424 14.6807 5.67653 14.7328C6.35475 15.1636 7.10676 15.4653 7.89465 15.6227C7.92746 16.0926 8.00753 16.5506 8.12696 16.9916C7.11094 16.855 6.13165 16.5201 5.24471 16.006L2.17609 17.0297C2.06272 17.0676 1.94116 17.0737 1.82454 17.0476C1.70792 17.0214 1.60066 16.9639 1.51434 16.8812C1.42802 16.7985 1.36592 16.6938 1.33474 16.5784C1.30356 16.4631 1.30448 16.3414 1.3374 16.2265L2.2719 12.957C1.64061 11.801 1.31065 10.5047 1.31246 9.18752ZM21 15.0938C21 16.6602 20.3777 18.1625 19.2701 19.2701C18.1624 20.3778 16.6601 21 15.0937 21C13.5273 21 12.025 20.3778 10.9174 19.2701C9.80973 18.1625 9.18746 16.6602 9.18746 15.0938C9.18746 13.5273 9.80973 12.0251 10.9174 10.9174C12.025 9.80979 13.5273 9.18752 15.0937 9.18752C16.6601 9.18752 18.1624 9.80979 19.2701 10.9174C20.3777 12.0251 21 13.5273 21 15.0938ZM15.75 12.4688C15.75 12.2947 15.6808 12.1278 15.5578 12.0047C15.4347 11.8817 15.2678 11.8125 15.0937 11.8125C14.9197 11.8125 14.7527 11.8817 14.6297 12.0047C14.5066 12.1278 14.4375 12.2947 14.4375 12.4688V14.4375H12.4687C12.2947 14.4375 12.1277 14.5067 12.0047 14.6297C11.8816 14.7528 11.8125 14.9197 11.8125 15.0938C11.8125 15.2678 11.8816 15.4347 12.0047 15.5578C12.1277 15.6809 12.2947 15.75 12.4687 15.75H14.4375V17.7188C14.4375 17.8928 14.5066 18.0597 14.6297 18.1828C14.7527 18.3059 14.9197 18.375 15.0937 18.375C15.2678 18.375 15.4347 18.3059 15.5578 18.1828C15.6808 18.0597 15.75 17.8928 15.75 17.7188V15.75H17.7187C17.8928 15.75 18.0597 15.6809 18.1828 15.5578C18.3058 15.4347 18.375 15.2678 18.375 15.0938C18.375 14.9197 18.3058 14.7528 18.1828 14.6297C18.0597 14.5067 17.8928 14.4375 17.7187 14.4375H15.75V12.4688Z" fill="#5C26DA"/>
</svg>
