<svg width="38" height="38" viewBox="0 0 38 38" fill="none" xmlns="http://www.w3.org/2000/svg">
<g clip-path="url(#clip0_19_1599)">
<path d="M26.5896 14.0856L21.3679 26.7235C20.8862 27.8893 19.9611 28.8161 18.7961 29.2998C17.6311 29.7836 16.3217 29.7847 15.1559 29.303C13.99 28.8213 13.0633 27.8963 12.5796 26.7313C12.0958 25.5663 12.0946 24.2569 12.5763 23.091L18.2521 9.35421C18.5532 8.62557 19.1313 8.04636 19.8595 7.74401C20.5876 7.44167 21.406 7.44094 22.1346 7.742C22.8633 8.04306 23.4425 8.62125 23.7448 9.34936C24.0472 10.0775 24.0479 10.8959 23.7468 11.6245L18.9792 23.1634C18.8588 23.4549 18.6275 23.6866 18.3362 23.8075C18.045 23.9285 17.7176 23.9287 17.4262 23.8083C17.1347 23.6879 16.903 23.4566 16.7821 23.1654C16.6612 22.8741 16.6609 22.5468 16.7813 22.2553L21.0949 11.8153L19.4465 11.1342L15.1329 21.5742C14.8318 22.3029 14.8325 23.1213 15.1349 23.8494C15.4372 24.5775 16.0164 25.1557 16.7451 25.4567C17.4737 25.7578 18.2921 25.7571 19.0202 25.4547C19.7484 25.1524 20.3265 24.5732 20.6276 23.8445L25.3952 12.3056C25.8769 11.1398 25.8758 9.83034 25.392 8.66536C24.9083 7.50038 23.9815 6.57528 22.8157 6.09359C21.6499 5.61189 20.3404 5.61305 19.1755 6.0968C18.0105 6.58056 17.0854 7.50729 16.6037 8.67312L10.9279 22.4099C10.2656 24.013 10.2672 25.8134 10.9323 27.4153C11.5975 29.0171 12.8718 30.2891 14.4748 30.9515C16.0778 31.6138 17.8783 31.6122 19.4801 30.947C21.082 30.2819 22.354 29.0076 23.0163 27.4046L28.238 14.7667L26.5896 14.0856Z" fill="#5C26DA"/>
</g>
<defs>
<clipPath id="clip0_19_1599">
<rect width="28.5373" height="28.5373" fill="white" transform="translate(11.1814) rotate(22.4494)"/>
</clipPath>
</defs>
</svg>
