<svg width="12" height="12" viewBox="0 0 12 12" fill="none" xmlns="http://www.w3.org/2000/svg">
<path d="M6.58341 0.166748V4.83342H11.2501C11.2501 2.25508 9.16175 0.166748 6.58341 0.166748ZM7.75008 3.66675V1.53175C8.74175 1.88175 9.52925 2.66925 9.88508 3.66675H7.75008ZM2.75675 5.41675L2.20258 4.25008H0.166748V5.41675H1.46175C1.46175 5.41675 2.56425 7.79092 2.69841 7.99508C2.05675 8.33925 1.62508 9.01591 1.62508 9.79175C1.62508 10.9176 2.54091 11.8334 3.66675 11.8334C4.69341 11.8334 5.54508 11.0751 5.68508 10.0834H6.89841C7.03841 11.0751 7.89008 11.8334 8.91675 11.8334C10.0426 11.8334 10.9584 10.9176 10.9584 9.79175C10.9584 9.18508 10.6901 8.64258 10.2701 8.26925C10.9055 7.45422 11.2505 6.45023 11.2501 5.41675H2.75675ZM3.66675 10.6667C3.18258 10.6667 2.79175 10.2759 2.79175 9.79175C2.79175 9.30758 3.18258 8.91675 3.66675 8.91675C4.15091 8.91675 4.54175 9.30758 4.54175 9.79175C4.54175 10.2759 4.15091 10.6667 3.66675 10.6667ZM8.91675 10.6667C8.43258 10.6667 8.04175 10.2759 8.04175 9.79175C8.04175 9.30758 8.43258 8.91675 8.91675 8.91675C9.40091 8.91675 9.79175 9.30758 9.79175 9.79175C9.79175 10.2759 9.40091 10.6667 8.91675 10.6667ZM9.34841 7.55175L9.17925 7.76758C8.75193 7.71285 8.31824 7.79449 7.94008 8.00086C7.56191 8.20722 7.25859 8.52777 7.07341 8.91675H5.51008C5.21841 8.31008 4.63508 7.86675 3.94675 7.76758L3.69008 7.37675C3.63175 7.27758 3.49175 6.97425 3.29925 6.58342H9.88508C9.76258 6.92758 9.58175 7.25425 9.34841 7.55175Z" fill="#54565A"/>
</svg>
