<svg width="15" height="15" viewBox="0 0 15 15" fill="none" xmlns="http://www.w3.org/2000/svg">
<path d="M8.9251 6.3C9.9001 6.3 10.5001 4.875 10.5001 3.975C10.5001 3.225 10.1251 2.325 9.3751 2.325C8.4001 2.325 7.8001 3.75 7.8001 4.65C7.8001 5.4 8.1751 6.3 8.9251 6.3ZM6.0751 6.3C6.8251 6.3 7.2001 5.4 7.2001 4.65C7.2001 3.675 6.6001 2.25 5.6251 2.25C4.8751 2.25 4.5001 3.15 4.5001 3.9C4.4251 4.875 5.0251 6.3 6.0751 6.3ZM11.6251 5.55C10.6501 5.55 9.9751 6.9 9.9751 7.875C9.9751 8.55 10.2751 9.225 10.9501 9.225C11.9251 9.225 12.6001 7.875 12.6001 6.9C12.6001 6.225 12.2251 5.55 11.6251 5.55ZM5.1001 7.875C5.1001 6.9 4.3501 5.55 3.4501 5.55C2.7751 5.55 2.4751 6.225 2.4751 6.9C2.4751 7.875 3.2251 9.225 4.1251 9.225C4.8001 9.225 5.1001 8.55 5.1001 7.875ZM7.5001 7.725C6.0001 7.725 3.9751 10.125 3.9751 11.775C3.9751 12.525 4.5001 12.75 5.1001 12.75C6.0001 12.75 6.6751 12.15 7.5001 12.15C8.2501 12.15 8.9251 12.75 9.7501 12.75C10.3501 12.75 11.0251 12.6 11.0251 11.775C11.0251 10.125 9.0001 7.725 7.5001 7.725Z" fill="#54565A"/>
</svg>
