<svg width="14" height="14" viewBox="0 0 14 14" fill="none" xmlns="http://www.w3.org/2000/svg">
<path d="M5.10183 2.60531C5.9465 1.09065 6.3685 0.333313 6.99983 0.333313C7.63116 0.333313 8.05316 1.09065 8.89783 2.60531L9.1165 2.99731C9.3565 3.42798 9.4765 3.64331 9.66316 3.78531C9.84983 3.92731 10.0832 3.97998 10.5498 4.08531L10.9738 4.18131C12.6138 4.55265 13.4332 4.73798 13.6285 5.36531C13.8232 5.99198 13.2645 6.64598 12.1465 7.95331L11.8572 8.29131C11.5398 8.66265 11.3805 8.84865 11.3092 9.07798C11.2378 9.30798 11.2618 9.55598 11.3098 10.0513L11.3538 10.5026C11.5225 12.2473 11.6072 13.1193 11.0965 13.5066C10.5858 13.8946 9.81783 13.5406 8.28316 12.834L7.88516 12.6513C7.44916 12.45 7.23116 12.35 6.99983 12.35C6.7685 12.35 6.5505 12.45 6.11383 12.6513L5.71716 12.834C4.18183 13.5406 3.41383 13.894 2.90383 13.5073C2.3925 13.1193 2.47716 12.2473 2.64583 10.5026L2.68983 10.052C2.73783 9.55598 2.76183 9.30798 2.68983 9.07865C2.61916 8.84865 2.45983 8.66265 2.1425 8.29198L1.85316 7.95331C0.735165 6.64665 0.176498 5.99265 0.371164 5.36531C0.566498 4.73798 1.3865 4.55198 3.0265 4.18131L3.4505 4.08531C3.9165 3.97998 4.14916 3.92731 4.3365 3.78531C4.52316 3.64331 4.64316 3.42798 4.88316 2.99731L5.10183 2.60531Z" fill="#FFD233"/>
</svg>
