<svg width="13" height="13" viewBox="0 0 13 13" fill="none" xmlns="http://www.w3.org/2000/svg">
<path d="M11.4582 1.54175L7.63317 5.36675M11.4582 1.54175H7.9165M11.4582 1.54175V5.08341M1.5415 7.91675C1.5415 8.85606 1.91464 9.75689 2.57883 10.4211C3.24303 11.0853 4.14386 11.4584 5.08317 11.4584C6.02248 11.4584 6.92332 11.0853 7.58751 10.4211C8.2517 9.75689 8.62484 8.85606 8.62484 7.91675C8.62484 6.97744 8.2517 6.0766 7.58751 5.41241C6.92332 4.74822 6.02248 4.37508 5.08317 4.37508C4.14386 4.37508 3.24303 4.74822 2.57883 5.41241C1.91464 6.0766 1.5415 6.97744 1.5415 7.91675Z" stroke="#54565A" stroke-width="2" stroke-linecap="round" stroke-linejoin="round"/>
</svg>
