<svg width="12" height="10" viewBox="0 0 12 10" fill="none" xmlns="http://www.w3.org/2000/svg">
<path d="M3.87867 4.78809C3.20592 4.99219 2.75461 5.59277 2.79998 6.23535C3.01373 5.98691 3.34017 5.77246 3.73561 5.63144L3.87867 4.78809ZM1.79648 5.76172L1.20155 2.25566C1.19611 2.22402 1.20679 2.20449 1.20604 2.20391C2.28904 1.57773 3.51455 1.24668 4.74998 1.24668C4.78017 1.24668 4.81055 1.25 4.84092 1.25039C5.10248 0.987305 5.43586 0.804492 5.80823 0.742578C6.16242 0.683594 6.52167 0.653711 6.88036 0.638672C6.69305 0.366211 6.42136 0.16543 6.09717 0.111328C5.64886 0.0369141 5.1983 0 4.7498 0C3.31242 0 1.89417 0.379297 0.622545 1.11445C0.169358 1.37656 -0.073455 1.92344 0.0197325 2.47227L0.61467 5.97832C0.881482 7.55098 3.17086 8.75332 4.44811 8.75332C4.51542 8.75332 4.57467 8.74434 4.6358 8.7377C4.3823 8.4041 4.09317 7.94707 3.89517 7.41777C3.00248 7.16426 1.90654 6.40957 1.79648 5.76172ZM3.62555 3.07695C3.61186 2.99648 3.58373 2.92324 3.54923 2.8543C3.39454 3.02832 3.16167 3.16191 2.88698 3.21211C2.6123 3.2625 2.34942 3.21992 2.14673 3.11113C2.13698 3.18809 2.13473 3.26699 2.14842 3.34746C2.22042 3.77129 2.60929 4.0543 3.0173 3.97969C3.42511 3.90508 3.69755 3.50078 3.62555 3.07695ZM11.3775 2.36133C9.70917 1.39688 7.78823 1.04473 5.90292 1.3584C5.39086 1.44355 4.98267 1.87129 4.88967 2.42012L4.29473 5.92617C4.00617 7.62637 6.08123 9.75957 7.26305 9.97598C8.44486 10.1926 11.0969 8.92539 11.3854 7.22519L11.9804 3.71914C12.0735 3.17012 11.8307 2.62324 11.3775 2.36133ZM6.2543 4.25195C6.3263 3.82812 6.71517 3.54512 7.12317 3.61992C7.53117 3.69473 7.80342 4.09883 7.73161 4.52266C7.71792 4.60313 7.6898 4.67637 7.6553 4.74531C7.50061 4.57129 7.26773 4.4377 6.99305 4.3875C6.71836 4.33711 6.45548 4.37969 6.2528 4.48848C6.24286 4.41133 6.24061 4.33242 6.2543 4.25195ZM7.57561 8.13398C6.53161 7.94277 5.82211 6.97637 5.90611 5.92891C6.29236 6.42773 6.96005 6.83066 7.77155 6.9793C8.58305 7.12793 9.34317 6.98652 9.87023 6.65508C9.60436 7.66953 8.61942 8.3252 7.57561 8.13398ZM10.0187 5.17812C9.86405 5.0041 9.63098 4.87051 9.3563 4.82031C9.08161 4.76992 8.81873 4.8125 8.61604 4.92129C8.6063 4.84434 8.60404 4.76543 8.61773 4.68496C8.68973 4.26113 9.07861 3.97813 9.48661 4.05273C9.89442 4.12754 10.1669 4.53164 10.095 4.95547C10.0814 5.03613 10.0532 5.10938 10.0187 5.17812Z" fill="#54565A"/>
</svg>
