<svg width="20" height="20" viewBox="0 0 20 20" fill="none" xmlns="http://www.w3.org/2000/svg">
<path d="M13.3333 2.69169C13.9249 2.00835 14.6749 1.66669 15.5833 1.66669C16.3416 1.66669 16.9749 1.94169 17.4999 2.50002C18.0249 3.05835 18.2999 3.69169 18.3333 4.41669C18.3333 5.00002 18.0583 5.67502 17.4999 6.46669C16.9416 7.25835 16.3999 7.91669 15.8583 8.45835C15.3166 8.99169 14.4749 9.78335 13.3333 10.8334C12.1749 9.78335 11.3249 8.99169 10.7833 8.45835C10.2416 7.92502 9.69159 7.25835 9.14159 6.46669C8.59159 5.67502 8.33325 5.00002 8.33325 4.41669C8.33325 3.65835 8.59992 3.02502 9.14159 2.50002C9.68325 1.97502 10.3333 1.70002 11.0916 1.66669C11.9833 1.66669 12.7249 2.00835 13.3333 2.69169ZM18.3333 15.8334V16.6667L11.6666 18.75L5.83325 17.1334V18.3334H0.833252V9.16669H7.47492L12.6083 11.0834C13.0657 11.2559 13.4597 11.5636 13.7381 11.9655C14.0165 12.3674 14.1659 12.8445 14.1666 13.3334H15.8333C17.2166 13.3334 18.3333 14.45 18.3333 15.8334ZM4.16659 16.6667V10.8334H2.49992V16.6667H4.16659ZM16.5833 15.475C16.4499 15.2 16.1583 15 15.8333 15H11.3749C10.9249 15 10.4833 14.9334 10.0583 14.7917L8.07492 14.1334L8.59992 12.55L10.5833 13.2084C10.8333 13.2917 12.4999 13.3334 12.4999 13.3334C12.4999 13.025 12.3083 12.75 12.0249 12.6417L7.17492 10.8334H5.83325V15.4167L11.6416 17.0084L16.5833 15.475Z" fill="#5C26DA"/>
</svg>
