<svg width="131" height="36" viewBox="0 0 131 36" fill="none" xmlns="http://www.w3.org/2000/svg">
<path d="M45.9434 26.16C45.0767 26.16 44.3101 26.0333 43.6434 25.78C42.9767 25.5267 42.4567 25.22 42.0834 24.86C41.7101 24.4867 41.5234 24.1333 41.5234 23.8C41.5234 23.64 41.5634 23.4733 41.6434 23.3C41.7367 23.1267 41.8501 22.98 41.9834 22.86C42.1301 22.7267 42.2834 22.66 42.4434 22.66C42.6301 22.66 42.8034 22.74 42.9634 22.9C43.1367 23.0467 43.3434 23.2267 43.5834 23.44C43.8234 23.6533 44.1234 23.84 44.4834 24C44.8434 24.16 45.3034 24.24 45.8634 24.24C46.3434 24.24 46.7701 24.1667 47.1434 24.02C47.5301 23.86 47.8301 23.6267 48.0434 23.32C48.2701 23 48.3834 22.6 48.3834 22.12C48.3834 21.6133 48.2634 21.1933 48.0234 20.86C47.7967 20.5267 47.4834 20.2467 47.0834 20.02C46.6967 19.7933 46.2767 19.5867 45.8234 19.4C45.3701 19.2133 44.9101 19.0133 44.4434 18.8C43.9767 18.5867 43.5501 18.3333 43.1634 18.04C42.7767 17.7333 42.4634 17.3533 42.2234 16.9C41.9967 16.4333 41.8834 15.8533 41.8834 15.16C41.8834 14.4267 42.0167 13.8133 42.2834 13.32C42.5634 12.8267 42.9301 12.4333 43.3834 12.14C43.8367 11.8467 44.3367 11.64 44.8834 11.52C45.4301 11.3867 45.9701 11.32 46.5034 11.32C46.8367 11.32 47.2034 11.3467 47.6034 11.4C48.0167 11.44 48.4167 11.52 48.8034 11.64C49.1901 11.7467 49.5101 11.8933 49.7634 12.08C50.0167 12.2667 50.1434 12.4933 50.1434 12.76C50.1434 12.8933 50.1101 13.0533 50.0434 13.24C49.9767 13.4133 49.8767 13.5667 49.7434 13.7C49.6234 13.8333 49.4634 13.9 49.2634 13.9C49.0901 13.9 48.8967 13.84 48.6834 13.72C48.4701 13.5867 48.1901 13.46 47.8434 13.34C47.5101 13.2067 47.0634 13.14 46.5034 13.14C46.0234 13.14 45.5901 13.2067 45.2034 13.34C44.8301 13.4733 44.5367 13.6733 44.3234 13.94C44.1101 14.1933 44.0034 14.5333 44.0034 14.96C44.0034 15.3867 44.1167 15.74 44.3434 16.02C44.5834 16.2867 44.8967 16.52 45.2834 16.72C45.6701 16.9067 46.0901 17.0867 46.5434 17.26C47.0101 17.4333 47.4701 17.64 47.9234 17.88C48.3901 18.1067 48.8167 18.3867 49.2034 18.72C49.6034 19.0533 49.9167 19.48 50.1434 20C50.3834 20.5067 50.5034 21.14 50.5034 21.9C50.5034 22.86 50.3034 23.66 49.9034 24.3C49.5167 24.9267 48.9767 25.3933 48.2834 25.7C47.6034 26.0067 46.8234 26.16 45.9434 26.16ZM56.9982 26.16C56.2782 26.16 55.6049 25.9733 54.9782 25.6C54.3516 25.2267 53.8449 24.74 53.4582 24.14C53.0849 23.5267 52.8982 22.8733 52.8982 22.18V20.34C52.8982 19.6333 53.0782 18.98 53.4382 18.38C53.8116 17.78 54.3116 17.3 54.9382 16.94C55.5782 16.58 56.2716 16.4 57.0182 16.4C57.7649 16.4 58.4516 16.58 59.0782 16.94C59.7049 17.2867 60.2049 17.76 60.5782 18.36C60.9649 18.9467 61.1582 19.6067 61.1582 20.34V22.18C61.1582 22.86 60.9649 23.5067 60.5782 24.12C60.2049 24.7333 59.6982 25.2267 59.0582 25.6C58.4316 25.9733 57.7449 26.16 56.9982 26.16ZM57.0182 24.3C57.3916 24.3 57.7316 24.2 58.0382 24C58.3449 23.8 58.5916 23.54 58.7782 23.22C58.9649 22.8867 59.0582 22.54 59.0582 22.18V20.34C59.0582 19.9933 58.9649 19.66 58.7782 19.34C58.5916 19.02 58.3449 18.76 58.0382 18.56C57.7316 18.36 57.3916 18.26 57.0182 18.26C56.6316 18.26 56.2849 18.36 55.9782 18.56C55.6849 18.76 55.4449 19.02 55.2582 19.34C55.0849 19.66 54.9982 19.9933 54.9982 20.34V22.18C54.9982 22.54 55.0849 22.8867 55.2582 23.22C55.4449 23.54 55.6916 23.8 55.9982 24C56.3049 24.2 56.6449 24.3 57.0182 24.3ZM67.4257 26.2C67.1991 26.2 66.9924 26.16 66.8057 26.08C66.6324 26.0133 66.5191 25.9133 66.4657 25.78L63.1057 17.68C63.0924 17.64 63.0724 17.5867 63.0457 17.52C63.0324 17.4533 63.0257 17.3933 63.0257 17.34C63.0257 17.1667 63.0991 17.0133 63.2457 16.88C63.4057 16.7467 63.5857 16.64 63.7857 16.56C63.9991 16.48 64.1991 16.44 64.3857 16.44C64.5191 16.44 64.6457 16.4733 64.7657 16.54C64.8991 16.5933 64.9857 16.6867 65.0257 16.82L67.4257 23.14L69.7857 16.86C69.8391 16.7267 69.9191 16.6267 70.0257 16.56C70.1324 16.48 70.2657 16.44 70.4257 16.44C70.5724 16.44 70.7524 16.48 70.9657 16.56C71.1924 16.64 71.3857 16.7533 71.5457 16.9C71.7191 17.0333 71.8057 17.18 71.8057 17.34C71.8057 17.4067 71.7991 17.4667 71.7857 17.52C71.7724 17.5733 71.7524 17.6267 71.7257 17.68L68.3857 25.78C68.3191 25.9133 68.1924 26.0133 68.0057 26.08C67.8324 26.16 67.6391 26.2 67.4257 26.2ZM78.3273 26.16C77.4206 26.16 76.6206 25.9933 75.9273 25.66C75.234 25.3267 74.6873 24.8667 74.2873 24.28C73.8873 23.68 73.6873 22.98 73.6873 22.18V20.28C73.6873 19.5733 73.874 18.9267 74.2473 18.34C74.634 17.7533 75.1406 17.2867 75.7673 16.94C76.394 16.58 77.0873 16.4 77.8473 16.4C78.5673 16.4 79.2273 16.56 79.8273 16.88C80.4273 17.1867 80.9073 17.62 81.2673 18.18C81.6406 18.74 81.8273 19.38 81.8273 20.1C81.8273 20.66 81.7406 21.06 81.5673 21.3C81.394 21.54 81.1673 21.6867 80.8873 21.74C80.6073 21.7933 80.314 21.82 80.0073 21.82H75.7873V22.28C75.7873 22.9467 76.0273 23.48 76.5073 23.88C77.0006 24.2667 77.6273 24.46 78.3873 24.46C78.854 24.46 79.234 24.3933 79.5273 24.26C79.8206 24.1267 80.0673 24 80.2673 23.88C80.4673 23.76 80.654 23.7 80.8273 23.7C81.0006 23.7 81.1473 23.7533 81.2673 23.86C81.3873 23.9667 81.4806 24.0933 81.5473 24.24C81.614 24.3867 81.6473 24.52 81.6473 24.64C81.6473 24.84 81.5073 25.06 81.2273 25.3C80.9606 25.54 80.5806 25.7467 80.0873 25.92C79.594 26.08 79.0073 26.16 78.3273 26.16ZM75.7873 20.52H79.1073C79.4006 20.52 79.594 20.48 79.6873 20.4C79.794 20.32 79.8473 20.16 79.8473 19.92C79.8473 19.5733 79.7606 19.2533 79.5873 18.96C79.414 18.6533 79.174 18.42 78.8673 18.26C78.5606 18.0867 78.214 18 77.8273 18C77.454 18 77.114 18.08 76.8073 18.24C76.5006 18.4 76.254 18.62 76.0673 18.9C75.8806 19.18 75.7873 19.5067 75.7873 19.88V20.52ZM85.5595 26C85.2662 26 85.0195 25.9267 84.8195 25.78C84.6328 25.6333 84.5395 25.4733 84.5395 25.3V17.2C84.5395 17 84.6328 16.84 84.8195 16.72C85.0195 16.5867 85.2662 16.52 85.5595 16.52C85.8262 16.52 86.0528 16.5867 86.2395 16.72C86.4262 16.84 86.5195 17 86.5195 17.2V18.08C86.6662 17.8 86.8595 17.5333 87.0995 17.28C87.3528 17.0267 87.6462 16.82 87.9795 16.66C88.3128 16.4867 88.6728 16.4 89.0595 16.4H89.6995C89.9128 16.4 90.0995 16.4933 90.2595 16.68C90.4195 16.8533 90.4995 17.0667 90.4995 17.32C90.4995 17.5733 90.4195 17.7933 90.2595 17.98C90.0995 18.1667 89.9128 18.26 89.6995 18.26H89.0595C88.6595 18.26 88.2728 18.38 87.8995 18.62C87.5262 18.86 87.2195 19.2 86.9795 19.64C86.7528 20.0667 86.6395 20.5867 86.6395 21.2V25.3C86.6395 25.4733 86.5328 25.6333 86.3195 25.78C86.1195 25.9267 85.8662 26 85.5595 26ZM96.675 26.16C95.7683 26.16 94.9683 25.9933 94.275 25.66C93.5816 25.3267 93.035 24.8667 92.635 24.28C92.235 23.68 92.035 22.98 92.035 22.18V20.28C92.035 19.5733 92.2216 18.9267 92.595 18.34C92.9816 17.7533 93.4883 17.2867 94.115 16.94C94.7416 16.58 95.435 16.4 96.195 16.4C96.915 16.4 97.575 16.56 98.175 16.88C98.775 17.1867 99.255 17.62 99.615 18.18C99.9883 18.74 100.175 19.38 100.175 20.1C100.175 20.66 100.088 21.06 99.915 21.3C99.7416 21.54 99.515 21.6867 99.235 21.74C98.955 21.7933 98.6616 21.82 98.355 21.82H94.135V22.28C94.135 22.9467 94.375 23.48 94.855 23.88C95.3483 24.2667 95.975 24.46 96.735 24.46C97.2016 24.46 97.5816 24.3933 97.875 24.26C98.1683 24.1267 98.415 24 98.615 23.88C98.815 23.76 99.0016 23.7 99.175 23.7C99.3483 23.7 99.495 23.7533 99.615 23.86C99.735 23.9667 99.8283 24.0933 99.895 24.24C99.9616 24.3867 99.995 24.52 99.995 24.64C99.995 24.84 99.855 25.06 99.575 25.3C99.3083 25.54 98.9283 25.7467 98.435 25.92C97.9416 26.08 97.355 26.16 96.675 26.16ZM94.135 20.52H97.455C97.7483 20.52 97.9416 20.48 98.035 20.4C98.1416 20.32 98.195 20.16 98.195 19.92C98.195 19.5733 98.1083 19.2533 97.935 18.96C97.7616 18.6533 97.5216 18.42 97.215 18.26C96.9083 18.0867 96.5616 18 96.175 18C95.8016 18 95.4616 18.08 95.155 18.24C94.8483 18.4 94.6016 18.62 94.415 18.9C94.2283 19.18 94.135 19.5067 94.135 19.88V20.52ZM103.927 14.14C103.594 14.14 103.307 14.0267 103.067 13.8C102.827 13.5733 102.707 13.32 102.707 13.04C102.707 12.7333 102.827 12.4733 103.067 12.26C103.307 12.0467 103.594 11.94 103.927 11.94C104.26 11.94 104.54 12.0467 104.767 12.26C105.007 12.4733 105.127 12.7333 105.127 13.04C105.127 13.32 105.007 13.5733 104.767 13.8C104.54 14.0267 104.26 14.14 103.927 14.14ZM103.927 26C103.62 26 103.367 25.9267 103.167 25.78C102.98 25.6333 102.887 25.4733 102.887 25.3V17.2C102.887 17 102.98 16.84 103.167 16.72C103.367 16.5867 103.62 16.52 103.927 16.52C104.22 16.52 104.467 16.5867 104.667 16.72C104.88 16.84 104.987 17 104.987 17.2V25.3C104.987 25.4733 104.88 25.6333 104.667 25.78C104.467 25.9267 104.22 26 103.927 26ZM111.744 30.5C110.971 30.5 110.258 30.3867 109.604 30.16C108.951 29.9467 108.431 29.6333 108.044 29.22C107.658 28.8067 107.464 28.3133 107.464 27.74C107.464 27.2067 107.618 26.76 107.924 26.4C108.231 26.0533 108.591 25.7867 109.004 25.6C108.738 25.48 108.518 25.32 108.344 25.12C108.171 24.92 108.084 24.64 108.084 24.28C108.084 23.9067 108.178 23.6067 108.364 23.38C108.551 23.1533 108.791 22.9467 109.084 22.76C108.711 22.4667 108.418 22.1067 108.204 21.68C108.004 21.24 107.904 20.76 107.904 20.24V19.68C107.904 19.04 108.058 18.4733 108.364 17.98C108.671 17.4867 109.104 17.1 109.664 16.82C110.238 16.54 110.891 16.4 111.624 16.4C112.078 16.4 112.498 16.46 112.884 16.58C113.284 16.7 113.638 16.8667 113.944 17.08C114.158 16.5867 114.371 16.24 114.584 16.04C114.811 15.84 115.024 15.74 115.224 15.74C115.504 15.74 115.718 15.82 115.864 15.98C116.011 16.14 116.084 16.3 116.084 16.46C116.084 16.5667 116.051 16.6667 115.984 16.76C115.931 16.84 115.851 16.9067 115.744 16.96C115.611 17.0267 115.451 17.12 115.264 17.24C115.091 17.3467 114.918 17.52 114.744 17.76C114.971 18.0133 115.138 18.3067 115.244 18.64C115.351 18.9733 115.404 19.32 115.404 19.68V20.24C115.404 20.8667 115.244 21.4333 114.924 21.94C114.604 22.4467 114.158 22.8467 113.584 23.14C113.011 23.42 112.358 23.56 111.624 23.56C111.104 23.56 110.644 23.48 110.244 23.32C110.138 23.3867 110.044 23.4667 109.964 23.56C109.898 23.64 109.864 23.7467 109.864 23.88C109.864 24.12 110.011 24.2933 110.304 24.4C110.598 24.5067 110.971 24.5867 111.424 24.64C111.891 24.6933 112.384 24.76 112.904 24.84C113.424 24.92 113.911 25.0533 114.364 25.24C114.831 25.4133 115.211 25.6733 115.504 26.02C115.798 26.38 115.944 26.8667 115.944 27.48C115.944 28.1733 115.751 28.74 115.364 29.18C114.978 29.6333 114.464 29.9667 113.824 30.18C113.198 30.3933 112.504 30.5 111.744 30.5ZM111.704 29.1C112.358 29.1 112.884 28.9533 113.284 28.66C113.698 28.38 113.904 28.0067 113.904 27.54C113.904 27.2067 113.804 26.9467 113.604 26.76C113.404 26.5733 113.144 26.4333 112.824 26.34C112.504 26.2467 112.164 26.18 111.804 26.14C111.458 26.1 111.124 26.06 110.804 26.02C110.431 26.1533 110.111 26.34 109.844 26.58C109.591 26.8333 109.464 27.1467 109.464 27.52C109.464 28.0133 109.671 28.4 110.084 28.68C110.511 28.96 111.051 29.1 111.704 29.1ZM111.664 22.22C112.198 22.22 112.611 22.0333 112.904 21.66C113.211 21.2867 113.364 20.8133 113.364 20.24V19.68C113.364 19.1333 113.211 18.6733 112.904 18.3C112.611 17.9267 112.191 17.74 111.644 17.74C111.098 17.74 110.678 17.9267 110.384 18.3C110.091 18.6733 109.944 19.1333 109.944 19.68V20.22C109.944 20.78 110.091 21.2533 110.384 21.64C110.678 22.0267 111.104 22.22 111.664 22.22ZM119.501 26C119.195 26 118.941 25.9267 118.741 25.78C118.555 25.6333 118.461 25.4733 118.461 25.3V17.2C118.461 17 118.555 16.84 118.741 16.72C118.941 16.5867 119.195 16.52 119.501 16.52C119.755 16.52 119.975 16.5867 120.161 16.72C120.348 16.84 120.441 17 120.441 17.2V17.92C120.641 17.5333 120.968 17.1867 121.421 16.88C121.888 16.56 122.455 16.4 123.121 16.4C123.748 16.4 124.321 16.58 124.841 16.94C125.375 17.2867 125.801 17.76 126.121 18.36C126.441 18.9467 126.601 19.6067 126.601 20.34V25.3C126.601 25.5267 126.488 25.7 126.261 25.82C126.048 25.94 125.808 26 125.541 26C125.301 26 125.068 25.94 124.841 25.82C124.615 25.7 124.501 25.5267 124.501 25.3V20.34C124.501 19.9933 124.408 19.66 124.221 19.34C124.048 19.02 123.808 18.76 123.501 18.56C123.195 18.36 122.855 18.26 122.481 18.26C122.161 18.26 121.855 18.3467 121.561 18.52C121.268 18.68 121.028 18.9133 120.841 19.22C120.655 19.5267 120.561 19.9 120.561 20.34V25.3C120.561 25.4733 120.455 25.6333 120.241 25.78C120.041 25.9267 119.795 26 119.501 26Z" fill="white"/>
<path d="M28.0151 24.3968C26.1897 26.8607 23.8919 28.544 21.7057 29.3117C19.5116 30.0822 17.5696 29.8976 16.2154 28.8943C14.8612 27.891 14.119 26.0869 14.2171 23.7635C14.3148 21.4485 15.256 18.7601 17.0814 16.2963C18.9068 13.8324 21.2046 12.1491 23.3907 11.3814C25.5849 10.6109 27.5269 10.7955 28.8811 11.7988C30.2353 12.8021 30.9775 14.6062 30.8794 16.9296C30.7816 19.2446 29.8405 21.933 28.0151 24.3968Z" stroke="#FFC93E" stroke-width="2.5"/>
<mask id="mask0_12_189" style="mask-type:alpha" maskUnits="userSpaceOnUse" x="5" y="8" width="23" height="24">
<path d="M16.3415 14.2019L19.0278 11.5156L11.4167 8.82935L6.49182 12.411C6.49182 12.411 3.80553 18.0074 7.38726 24.0516C10.969 30.0957 17.2369 32.1104 19.4755 31.8865C21.714 31.6627 27.5343 28.7525 27.5343 28.7525L25.7045 21.3601L22.4453 15.0641L19.0278 18.4638L21.7221 26.0665L10.9689 21.5891L16.3415 14.2019Z" fill="#D9D9D9"/>
</mask>
<g mask="url(#mask0_12_189)">
<path d="M10.3199 24.7637C12.1453 27.2276 14.4431 28.9109 16.6293 29.6786C18.8234 30.4491 20.7654 30.2645 22.1196 29.2612C23.4738 28.2579 24.216 26.4539 24.1179 24.1304C24.0202 21.8154 23.079 19.127 21.2536 16.6632C19.4282 14.1993 17.1304 12.516 14.9443 11.7483C12.7501 10.9778 10.8081 11.1624 9.4539 12.1657C8.0997 13.169 7.35752 14.9731 7.45562 17.2965C7.55337 19.6115 8.49451 22.2999 10.3199 24.7637Z" stroke="white" stroke-width="2.5"/>
</g>
<mask id="mask1_12_189" style="mask-type:alpha" maskUnits="userSpaceOnUse" x="0" y="0" width="29" height="36">
<path d="M25.4356 4.95175L28.2059 1.567C28.2059 1.567 18.6515 -1.95875 10.8445 1.567C3.03754 5.09275 -1.13078 14.4544 0.267314 21.9659C1.66541 29.4774 6.78415 33.1576 11.5846 35.4242L13.0956 31.3948C13.0956 31.3948 10.8445 31.3948 7.06697 28.01C3.28942 24.6253 1.27473 14.0958 8.82983 7.35928C16.3849 0.622803 25.4356 4.95175 25.4356 4.95175Z" fill="#D9D9D9"/>
</mask>
<g mask="url(#mask1_12_189)">
<circle cx="18.3997" cy="18.1883" r="16.3787" stroke="white" stroke-width="2.5"/>
</g>
<path d="M9.50001 33L10.5 31.5C12.5 32.5 14.3749 32.6877 13.5 34C12.6251 35.3123 10 33.5 9.50001 33Z" fill="white" stroke="white" stroke-width="0.4"/>
<path d="M27 5C26 5 25.5 4.5 23 3.5L26.0666 2.53424C28.5 3.5 28 5 27 5Z" fill="white" stroke="white" stroke-width="0.4"/>
<circle cx="32.5" cy="7.5" r="1.5" fill="#FFC93E"/>
<circle cx="34" cy="12" r="1" fill="white"/>
<circle cx="18" cy="35" r="1" fill="#FFC93E"/>
</svg>
