<svg width="131" height="36" viewBox="0 0 131 36" fill="none" xmlns="http://www.w3.org/2000/svg">
<path d="M45.9434 26.16C45.0767 26.16 44.31 26.0333 43.6434 25.78C42.9767 25.5267 42.4567 25.22 42.0834 24.86C41.71 24.4867 41.5234 24.1333 41.5234 23.8C41.5234 23.64 41.5634 23.4733 41.6434 23.3C41.7367 23.1267 41.85 22.98 41.9834 22.86C42.13 22.7267 42.2834 22.66 42.4434 22.66C42.63 22.66 42.8034 22.74 42.9634 22.9C43.1367 23.0467 43.3434 23.2267 43.5834 23.44C43.8234 23.6533 44.1234 23.84 44.4834 24C44.8434 24.16 45.3034 24.24 45.8634 24.24C46.3434 24.24 46.77 24.1667 47.1434 24.02C47.53 23.86 47.83 23.6267 48.0434 23.32C48.27 23 48.3834 22.6 48.3834 22.12C48.3834 21.6133 48.2634 21.1933 48.0234 20.86C47.7967 20.5267 47.4834 20.2467 47.0834 20.02C46.6967 19.7933 46.2767 19.5867 45.8234 19.4C45.37 19.2133 44.91 19.0133 44.4434 18.8C43.9767 18.5867 43.55 18.3333 43.1634 18.04C42.7767 17.7333 42.4634 17.3533 42.2234 16.9C41.9967 16.4333 41.8834 15.8533 41.8834 15.16C41.8834 14.4267 42.0167 13.8133 42.2834 13.32C42.5634 12.8267 42.93 12.4333 43.3834 12.14C43.8367 11.8467 44.3367 11.64 44.8834 11.52C45.43 11.3867 45.97 11.32 46.5034 11.32C46.8367 11.32 47.2034 11.3467 47.6034 11.4C48.0167 11.44 48.4167 11.52 48.8034 11.64C49.19 11.7467 49.51 11.8933 49.7634 12.08C50.0167 12.2667 50.1434 12.4933 50.1434 12.76C50.1434 12.8933 50.11 13.0533 50.0434 13.24C49.9767 13.4133 49.8767 13.5667 49.7434 13.7C49.6234 13.8333 49.4634 13.9 49.2634 13.9C49.09 13.9 48.8967 13.84 48.6834 13.72C48.47 13.5867 48.19 13.46 47.8434 13.34C47.51 13.2067 47.0634 13.14 46.5034 13.14C46.0234 13.14 45.59 13.2067 45.2034 13.34C44.83 13.4733 44.5367 13.6733 44.3234 13.94C44.11 14.1933 44.0034 14.5333 44.0034 14.96C44.0034 15.3867 44.1167 15.74 44.3434 16.02C44.5834 16.2867 44.8967 16.52 45.2834 16.72C45.67 16.9067 46.09 17.0867 46.5434 17.26C47.01 17.4333 47.47 17.64 47.9234 17.88C48.39 18.1067 48.8167 18.3867 49.2034 18.72C49.6034 19.0533 49.9167 19.48 50.1434 20C50.3834 20.5067 50.5034 21.14 50.5034 21.9C50.5034 22.86 50.3034 23.66 49.9034 24.3C49.5167 24.9267 48.9767 25.3933 48.2834 25.7C47.6034 26.0067 46.8234 26.16 45.9434 26.16ZM56.1982 26.16C55.4782 26.16 54.8049 25.9733 54.1782 25.6C53.5515 25.2267 53.0449 24.74 52.6582 24.14C52.2849 23.5267 52.0982 22.8733 52.0982 22.18V20.34C52.0982 19.6333 52.2782 18.98 52.6382 18.38C53.0115 17.78 53.5115 17.3 54.1382 16.94C54.7782 16.58 55.4715 16.4 56.2182 16.4C56.9649 16.4 57.6515 16.58 58.2782 16.94C58.9049 17.2867 59.4049 17.76 59.7782 18.36C60.1649 18.9467 60.3582 19.6067 60.3582 20.34V22.18C60.3582 22.86 60.1649 23.5067 59.7782 24.12C59.4049 24.7333 58.8982 25.2267 58.2582 25.6C57.6315 25.9733 56.9449 26.16 56.1982 26.16ZM56.2182 24.3C56.5915 24.3 56.9315 24.2 57.2382 24C57.5449 23.8 57.7915 23.54 57.9782 23.22C58.1649 22.8867 58.2582 22.54 58.2582 22.18V20.34C58.2582 19.9933 58.1649 19.66 57.9782 19.34C57.7915 19.02 57.5449 18.76 57.2382 18.56C56.9315 18.36 56.5915 18.26 56.2182 18.26C55.8315 18.26 55.4849 18.36 55.1782 18.56C54.8849 18.76 54.6449 19.02 54.4582 19.34C54.2849 19.66 54.1982 19.9933 54.1982 20.34V22.18C54.1982 22.54 54.2849 22.8867 54.4582 23.22C54.6449 23.54 54.8915 23.8 55.1982 24C55.5049 24.2 55.8449 24.3 56.2182 24.3ZM65.8257 26.2C65.599 26.2 65.3924 26.16 65.2057 26.08C65.0324 26.0133 64.919 25.9133 64.8657 25.78L61.5057 17.68C61.4924 17.64 61.4724 17.5867 61.4457 17.52C61.4324 17.4533 61.4257 17.3933 61.4257 17.34C61.4257 17.1667 61.499 17.0133 61.6457 16.88C61.8057 16.7467 61.9857 16.64 62.1857 16.56C62.399 16.48 62.599 16.44 62.7857 16.44C62.919 16.44 63.0457 16.4733 63.1657 16.54C63.299 16.5933 63.3857 16.6867 63.4257 16.82L65.8257 23.14L68.1857 16.86C68.239 16.7267 68.319 16.6267 68.4257 16.56C68.5324 16.48 68.6657 16.44 68.8257 16.44C68.9724 16.44 69.1524 16.48 69.3657 16.56C69.5924 16.64 69.7857 16.7533 69.9457 16.9C70.119 17.0333 70.2057 17.18 70.2057 17.34C70.2057 17.4067 70.199 17.4667 70.1857 17.52C70.1724 17.5733 70.1524 17.6267 70.1257 17.68L66.7857 25.78C66.719 25.9133 66.5924 26.0133 66.4057 26.08C66.2324 26.16 66.039 26.2 65.8257 26.2ZM75.9273 26.16C75.0206 26.16 74.2206 25.9933 73.5273 25.66C72.8339 25.3267 72.2873 24.8667 71.8873 24.28C71.4873 23.68 71.2873 22.98 71.2873 22.18V20.28C71.2873 19.5733 71.4739 18.9267 71.8473 18.34C72.2339 17.7533 72.7406 17.2867 73.3673 16.94C73.9939 16.58 74.6873 16.4 75.4473 16.4C76.1673 16.4 76.8273 16.56 77.4273 16.88C78.0273 17.1867 78.5073 17.62 78.8673 18.18C79.2406 18.74 79.4273 19.38 79.4273 20.1C79.4273 20.66 79.3406 21.06 79.1673 21.3C78.9939 21.54 78.7673 21.6867 78.4873 21.74C78.2073 21.7933 77.9139 21.82 77.6073 21.82H73.3873V22.28C73.3873 22.9467 73.6273 23.48 74.1073 23.88C74.6006 24.2667 75.2273 24.46 75.9873 24.46C76.4539 24.46 76.8339 24.3933 77.1273 24.26C77.4206 24.1267 77.6673 24 77.8673 23.88C78.0673 23.76 78.2539 23.7 78.4273 23.7C78.6006 23.7 78.7473 23.7533 78.8673 23.86C78.9873 23.9667 79.0806 24.0933 79.1473 24.24C79.2139 24.3867 79.2473 24.52 79.2473 24.64C79.2473 24.84 79.1073 25.06 78.8273 25.3C78.5606 25.54 78.1806 25.7467 77.6873 25.92C77.1939 26.08 76.6073 26.16 75.9273 26.16ZM73.3873 20.52H76.7073C77.0006 20.52 77.1939 20.48 77.2873 20.4C77.3939 20.32 77.4473 20.16 77.4473 19.92C77.4473 19.5733 77.3606 19.2533 77.1873 18.96C77.0139 18.6533 76.7739 18.42 76.4673 18.26C76.1606 18.0867 75.8139 18 75.4273 18C75.0539 18 74.7139 18.08 74.4073 18.24C74.1006 18.4 73.8539 18.62 73.6673 18.9C73.4806 19.18 73.3873 19.5067 73.3873 19.88V20.52ZM82.3595 26C82.0661 26 81.8195 25.9267 81.6195 25.78C81.4328 25.6333 81.3395 25.4733 81.3395 25.3V17.2C81.3395 17 81.4328 16.84 81.6195 16.72C81.8195 16.5867 82.0661 16.52 82.3595 16.52C82.6261 16.52 82.8528 16.5867 83.0395 16.72C83.2261 16.84 83.3195 17 83.3195 17.2V18.08C83.4661 17.8 83.6595 17.5333 83.8995 17.28C84.1528 17.0267 84.4461 16.82 84.7795 16.66C85.1128 16.4867 85.4728 16.4 85.8595 16.4H86.4995C86.7128 16.4 86.8995 16.4933 87.0595 16.68C87.2195 16.8533 87.2995 17.0667 87.2995 17.32C87.2995 17.5733 87.2195 17.7933 87.0595 17.98C86.8995 18.1667 86.7128 18.26 86.4995 18.26H85.8595C85.4595 18.26 85.0728 18.38 84.6995 18.62C84.3261 18.86 84.0195 19.2 83.7795 19.64C83.5528 20.0667 83.4395 20.5867 83.4395 21.2V25.3C83.4395 25.4733 83.3328 25.6333 83.1195 25.78C82.9195 25.9267 82.6661 26 82.3595 26ZM92.6749 26.16C91.7683 26.16 90.9683 25.9933 90.2749 25.66C89.5816 25.3267 89.0349 24.8667 88.6349 24.28C88.2349 23.68 88.0349 22.98 88.0349 22.18V20.28C88.0349 19.5733 88.2216 18.9267 88.5949 18.34C88.9816 17.7533 89.4883 17.2867 90.1149 16.94C90.7416 16.58 91.4349 16.4 92.1949 16.4C92.9149 16.4 93.5749 16.56 94.1749 16.88C94.7749 17.1867 95.2549 17.62 95.6149 18.18C95.9883 18.74 96.1749 19.38 96.1749 20.1C96.1749 20.66 96.0883 21.06 95.9149 21.3C95.7416 21.54 95.5149 21.6867 95.2349 21.74C94.9549 21.7933 94.6616 21.82 94.3549 21.82H90.1349V22.28C90.1349 22.9467 90.3749 23.48 90.8549 23.88C91.3483 24.2667 91.9749 24.46 92.7349 24.46C93.2016 24.46 93.5816 24.3933 93.8749 24.26C94.1683 24.1267 94.4149 24 94.6149 23.88C94.8149 23.76 95.0016 23.7 95.1749 23.7C95.3483 23.7 95.4949 23.7533 95.6149 23.86C95.7349 23.9667 95.8283 24.0933 95.8949 24.24C95.9616 24.3867 95.9949 24.52 95.9949 24.64C95.9949 24.84 95.8549 25.06 95.5749 25.3C95.3083 25.54 94.9283 25.7467 94.4349 25.92C93.9416 26.08 93.3549 26.16 92.6749 26.16ZM90.1349 20.52H93.4549C93.7483 20.52 93.9416 20.48 94.0349 20.4C94.1416 20.32 94.1949 20.16 94.1949 19.92C94.1949 19.5733 94.1083 19.2533 93.9349 18.96C93.7616 18.6533 93.5216 18.42 93.2149 18.26C92.9083 18.0867 92.5616 18 92.1749 18C91.8016 18 91.4616 18.08 91.1549 18.24C90.8483 18.4 90.6016 18.62 90.4149 18.9C90.2283 19.18 90.1349 19.5067 90.1349 19.88V20.52ZM99.1271 14.14C98.7938 14.14 98.5071 14.0267 98.2671 13.8C98.0271 13.5733 97.9071 13.32 97.9071 13.04C97.9071 12.7333 98.0271 12.4733 98.2671 12.26C98.5071 12.0467 98.7938 11.94 99.1271 11.94C99.4604 11.94 99.7404 12.0467 99.9671 12.26C100.207 12.4733 100.327 12.7333 100.327 13.04C100.327 13.32 100.207 13.5733 99.9671 13.8C99.7404 14.0267 99.4604 14.14 99.1271 14.14ZM99.1271 26C98.8204 26 98.5671 25.9267 98.3671 25.78C98.1804 25.6333 98.0871 25.4733 98.0871 25.3V17.2C98.0871 17 98.1804 16.84 98.3671 16.72C98.5671 16.5867 98.8204 16.52 99.1271 16.52C99.4204 16.52 99.6671 16.5867 99.8671 16.72C100.08 16.84 100.187 17 100.187 17.2V25.3C100.187 25.4733 100.08 25.6333 99.8671 25.78C99.6671 25.9267 99.4204 26 99.1271 26ZM106.144 30.5C105.371 30.5 104.658 30.3867 104.004 30.16C103.351 29.9467 102.831 29.6333 102.444 29.22C102.058 28.8067 101.864 28.3133 101.864 27.74C101.864 27.2067 102.018 26.76 102.324 26.4C102.631 26.0533 102.991 25.7867 103.404 25.6C103.138 25.48 102.918 25.32 102.744 25.12C102.571 24.92 102.484 24.64 102.484 24.28C102.484 23.9067 102.578 23.6067 102.764 23.38C102.951 23.1533 103.191 22.9467 103.484 22.76C103.111 22.4667 102.818 22.1067 102.604 21.68C102.404 21.24 102.304 20.76 102.304 20.24V19.68C102.304 19.04 102.458 18.4733 102.764 17.98C103.071 17.4867 103.504 17.1 104.064 16.82C104.638 16.54 105.291 16.4 106.024 16.4C106.478 16.4 106.898 16.46 107.284 16.58C107.684 16.7 108.038 16.8667 108.344 17.08C108.558 16.5867 108.771 16.24 108.984 16.04C109.211 15.84 109.424 15.74 109.624 15.74C109.904 15.74 110.118 15.82 110.264 15.98C110.411 16.14 110.484 16.3 110.484 16.46C110.484 16.5667 110.451 16.6667 110.384 16.76C110.331 16.84 110.251 16.9067 110.144 16.96C110.011 17.0267 109.851 17.12 109.664 17.24C109.491 17.3467 109.318 17.52 109.144 17.76C109.371 18.0133 109.538 18.3067 109.644 18.64C109.751 18.9733 109.804 19.32 109.804 19.68V20.24C109.804 20.8667 109.644 21.4333 109.324 21.94C109.004 22.4467 108.558 22.8467 107.984 23.14C107.411 23.42 106.758 23.56 106.024 23.56C105.504 23.56 105.044 23.48 104.644 23.32C104.538 23.3867 104.444 23.4667 104.364 23.56C104.298 23.64 104.264 23.7467 104.264 23.88C104.264 24.12 104.411 24.2933 104.704 24.4C104.998 24.5067 105.371 24.5867 105.824 24.64C106.291 24.6933 106.784 24.76 107.304 24.84C107.824 24.92 108.311 25.0533 108.764 25.24C109.231 25.4133 109.611 25.6733 109.904 26.02C110.198 26.38 110.344 26.8667 110.344 27.48C110.344 28.1733 110.151 28.74 109.764 29.18C109.378 29.6333 108.864 29.9667 108.224 30.18C107.598 30.3933 106.904 30.5 106.144 30.5ZM106.104 29.1C106.758 29.1 107.284 28.9533 107.684 28.66C108.098 28.38 108.304 28.0067 108.304 27.54C108.304 27.2067 108.204 26.9467 108.004 26.76C107.804 26.5733 107.544 26.4333 107.224 26.34C106.904 26.2467 106.564 26.18 106.204 26.14C105.858 26.1 105.524 26.06 105.204 26.02C104.831 26.1533 104.511 26.34 104.244 26.58C103.991 26.8333 103.864 27.1467 103.864 27.52C103.864 28.0133 104.071 28.4 104.484 28.68C104.911 28.96 105.451 29.1 106.104 29.1ZM106.064 22.22C106.598 22.22 107.011 22.0333 107.304 21.66C107.611 21.2867 107.764 20.8133 107.764 20.24V19.68C107.764 19.1333 107.611 18.6733 107.304 18.3C107.011 17.9267 106.591 17.74 106.044 17.74C105.498 17.74 105.078 17.9267 104.784 18.3C104.491 18.6733 104.344 19.1333 104.344 19.68V20.22C104.344 20.78 104.491 21.2533 104.784 21.64C105.078 22.0267 105.504 22.22 106.064 22.22ZM113.101 26C112.795 26 112.541 25.9267 112.341 25.78C112.155 25.6333 112.061 25.4733 112.061 25.3V17.2C112.061 17 112.155 16.84 112.341 16.72C112.541 16.5867 112.795 16.52 113.101 16.52C113.355 16.52 113.575 16.5867 113.761 16.72C113.948 16.84 114.041 17 114.041 17.2V17.92C114.241 17.5333 114.568 17.1867 115.021 16.88C115.488 16.56 116.055 16.4 116.721 16.4C117.348 16.4 117.921 16.58 118.441 16.94C118.975 17.2867 119.401 17.76 119.721 18.36C120.041 18.9467 120.201 19.6067 120.201 20.34V25.3C120.201 25.5267 120.088 25.7 119.861 25.82C119.648 25.94 119.408 26 119.141 26C118.901 26 118.668 25.94 118.441 25.82C118.215 25.7 118.101 25.5267 118.101 25.3V20.34C118.101 19.9933 118.008 19.66 117.821 19.34C117.648 19.02 117.408 18.76 117.101 18.56C116.795 18.36 116.455 18.26 116.081 18.26C115.761 18.26 115.455 18.3467 115.161 18.52C114.868 18.68 114.628 18.9133 114.441 19.22C114.255 19.5267 114.161 19.9 114.161 20.34V25.3C114.161 25.4733 114.055 25.6333 113.841 25.78C113.641 25.9267 113.395 26 113.101 26Z" fill="#5C26DA"/>
<path d="M28.0151 24.3968C26.1897 26.8607 23.8919 28.544 21.7058 29.3117C19.5117 30.0822 17.5696 29.8976 16.2154 28.8943C14.8612 27.891 14.119 26.0869 14.2171 23.7635C14.3149 21.4485 15.256 18.7601 17.0814 16.2963C18.9069 13.8324 21.2046 12.1491 23.3908 11.3814C25.5849 10.6109 27.527 10.7955 28.8812 11.7988C30.2354 12.8021 30.9775 14.6062 30.8794 16.9296C30.7817 19.2446 29.8405 21.933 28.0151 24.3968Z" stroke="#FFC93E" stroke-width="2.5"/>
<mask id="mask0_17_664" style="mask-type:alpha" maskUnits="userSpaceOnUse" x="5" y="8" width="23" height="24">
<path d="M16.3414 14.2019L19.0277 11.5156L11.4166 8.82935L6.49172 12.411C6.49172 12.411 3.80543 18.0074 7.38716 24.0516C10.9689 30.0957 17.2368 32.1104 19.4754 31.8865C21.7139 31.6627 27.5342 28.7525 27.5342 28.7525L25.7044 21.3601L22.4452 15.0641L19.0277 18.4638L21.722 26.0665L10.9688 21.5891L16.3414 14.2019Z" fill="#D9D9D9"/>
</mask>
<g mask="url(#mask0_17_664)">
<path d="M10.3198 24.7637C12.1452 27.2276 14.443 28.9109 16.6292 29.6786C18.8233 30.4491 20.7653 30.2645 22.1195 29.2612C23.4737 28.2579 24.2159 26.4539 24.1178 24.1304C24.0201 21.8154 23.0789 19.127 21.2535 16.6632C19.4281 14.1993 17.1303 12.516 14.9442 11.7483C12.75 10.9778 10.808 11.1624 9.45381 12.1657C8.09961 13.169 7.35742 14.9731 7.45552 17.2965C7.55327 19.6115 8.49441 22.2999 10.3198 24.7637Z" stroke="#5C26DA" stroke-width="2.5"/>
</g>
<mask id="mask1_17_664" style="mask-type:alpha" maskUnits="userSpaceOnUse" x="0" y="0" width="29" height="36">
<path d="M25.4356 4.95175L28.2059 1.567C28.2059 1.567 18.6515 -1.95875 10.8445 1.567C3.03754 5.09275 -1.13078 14.4544 0.267314 21.9659C1.66541 29.4774 6.78415 33.1576 11.5846 35.4242L13.0956 31.3948C13.0956 31.3948 10.8445 31.3948 7.06697 28.01C3.28942 24.6253 1.27473 14.0958 8.82983 7.35928C16.3849 0.622803 25.4356 4.95175 25.4356 4.95175Z" fill="#D9D9D9"/>
</mask>
<g mask="url(#mask1_17_664)">
<circle cx="18.3997" cy="18.1883" r="16.3787" stroke="#5C26DA" stroke-width="2.5"/>
</g>
<path d="M9.50002 33L10.5 31.5C12.5 32.5 14.3749 32.6877 13.5 34C12.6251 35.3123 10 33.5 9.50002 33Z" fill="#5C26DA" stroke="#5C26DA" stroke-width="0.4"/>
<path d="M27 5C26 5 25.5 4.5 23 3.5L26.0666 2.53424C28.5 3.5 28 5 27 5Z" fill="#5C26DA" stroke="#5C26DA" stroke-width="0.4"/>
<circle cx="32.5" cy="7.5" r="1.5" fill="#FFC93E"/>
<circle cx="34" cy="12" r="1" fill="#5C26DA"/>
<circle cx="18" cy="35" r="1" fill="#FFC93E"/>
</svg>
