<svg width="62" height="62" viewBox="0 0 62 62" fill="none" xmlns="http://www.w3.org/2000/svg">
<circle cx="30.9999" cy="30.9999" r="26.5714" fill="#F7F8FB" fill-opacity="0.9"/>
<circle cx="31" cy="31" r="31" fill="#F7F8FB" fill-opacity="0.6"/>
<path d="M43.7249 38.9096C41.1217 42.4233 37.8565 44.8066 34.7777 45.8878C31.6845 46.9741 29.0305 46.687 27.2171 45.3434C25.4036 43.9999 24.3561 41.5446 24.4944 38.2691C24.632 35.0089 25.9611 31.1911 28.5644 27.6775C31.1676 24.1638 34.4327 21.7804 37.5115 20.6992C40.6047 19.613 43.2587 19.9 45.0722 21.2436C46.8856 22.5872 47.9332 25.0425 47.7949 28.3179C47.6572 31.5782 46.3281 35.3959 43.7249 38.9096Z" stroke="#FFC93E" stroke-width="4.5"/>
<mask id="mask0_17_511" style="mask-type:alpha" maskUnits="userSpaceOnUse" x="11" y="16" width="33" height="34">
<path d="M25.6858 24.3572L30.1144 19.9286L20.0621 16.0527L12.9174 21.2489C12.9174 21.2489 9.02024 29.3679 14.2164 38.1364C19.4126 46.9049 28.5058 49.8278 31.7534 49.503C35.0011 49.1782 43.4448 44.9564 43.4448 44.9564L36.575 25.2429L31.1039 30.5572L32.0782 43.0078L19.4126 34.564L25.6858 24.3572Z" fill="#D9D9D9"/>
</mask>
<g mask="url(#mask0_17_511)">
<path d="M18.8215 38.9096C21.4247 42.4233 24.6898 44.8066 27.7687 45.8878C30.8618 46.9741 33.5158 46.687 35.3293 45.3434C37.1428 43.9999 38.1903 41.5446 38.052 38.2691C37.9144 35.0089 36.5852 31.1911 33.982 27.6775C31.3788 24.1638 28.1137 21.7804 25.0348 20.6992C21.9417 19.613 19.2877 19.9 17.4742 21.2436C15.6608 22.5872 14.6132 25.0425 14.7515 28.3179C14.8892 31.5782 16.2183 35.3959 18.8215 38.9096Z" stroke="#5C26DA" stroke-width="4.5"/>
</g>
</svg>
