<svg width="14" height="14" viewBox="0 0 14 14" fill="none" xmlns="http://www.w3.org/2000/svg">
<path d="M5.90625 1.75C5.36112 1.75 4.89606 2.00463 4.53906 2.36513C4.34437 2.28988 4.15975 2.1875 3.9375 2.1875C2.975 2.1875 2.1875 2.975 2.1875 3.9375C2.1875 4.38681 2.37038 4.78844 2.65256 5.0995C2.63486 5.14773 2.62554 5.19863 2.625 5.25V10.9375C2.625 11.6572 3.21781 12.25 3.9375 12.25H9.1875C9.90719 12.25 10.5 11.6572 10.5 10.9375V10.0625H10.9375C11.6572 10.0625 12.25 9.46969 12.25 8.75V7C12.25 6.28031 11.6572 5.6875 10.9375 5.6875H10.5V5.16775C10.5034 5.13605 10.5034 5.10408 10.5 5.07237C10.7669 4.76481 10.9375 4.37325 10.9375 3.9375C10.9375 2.975 10.15 2.1875 9.1875 2.1875C8.86112 2.1875 8.57237 2.30388 8.3125 2.46094C8.05263 2.30344 7.76388 2.1875 7.4375 2.1875C7.32463 2.1875 7.23625 2.22163 7.1365 2.24219C6.797 1.95694 6.38531 1.75 5.90625 1.75ZM5.90625 2.625C6.22738 2.625 6.50956 2.77025 6.713 2.99425L6.90419 3.199L7.17763 3.11719C7.27563 3.08481 7.35437 3.0625 7.4375 3.0625C7.6615 3.0625 7.86625 3.15131 8.0255 3.29481L8.3125 3.55469L8.5995 3.29481C8.75974 3.14687 8.96941 3.06403 9.1875 3.0625C9.67619 3.0625 10.0625 3.44881 10.0625 3.9375C10.0625 4.42619 9.67619 4.8125 9.1875 4.8125C8.70188 4.8125 7.99794 4.60731 7.99794 4.60731L7.4375 4.44325V5.03125C7.4375 5.64462 7.56875 6.11319 7.68381 6.46669C7.798 6.82063 7.875 7.04594 7.875 7.21875C7.875 7.58625 7.58625 7.875 7.21875 7.875C6.85125 7.875 6.5625 7.58625 6.5625 7.21875C6.5625 7.04594 6.6395 6.80706 6.75412 6.45312C6.86831 6.09919 7 5.64156 7 5.03125V4.25206L6.34375 4.662C6.34375 4.662 6.265 4.70138 6.16612 4.74425C6.08331 4.77959 5.99575 4.80259 5.90625 4.8125C5.6329 4.81232 5.36949 4.70995 5.16775 4.5255L4.85362 4.2385L4.56662 4.53906C4.44666 4.666 4.29131 4.75393 4.12074 4.79147C3.95017 4.829 3.77226 4.81439 3.61009 4.74953C3.44793 4.68467 3.30901 4.57257 3.21136 4.42777C3.11371 4.28296 3.06185 4.11215 3.0625 3.9375C3.0625 3.44881 3.44881 3.0625 3.9375 3.0625C4.11512 3.0625 4.27569 3.12244 4.41612 3.213L4.77138 3.43175L5.01769 3.08962C5.11694 2.94585 5.24971 2.82841 5.40453 2.74746C5.55934 2.66651 5.73155 2.62448 5.90625 2.625ZM4.89431 5.35938C5.19356 5.54575 5.52869 5.6875 5.90625 5.6875C5.95219 5.6875 5.97275 5.66563 6.01562 5.65994C5.97975 5.82925 5.9815 6.04625 5.93338 6.19369C5.82925 6.51481 5.6875 6.82237 5.6875 7.21875C5.6875 8.05963 6.37787 8.75 7.21875 8.75C8.05963 8.75 8.75 8.05963 8.75 7.21875C8.75 6.82237 8.60825 6.51306 8.50369 6.19325C8.44769 6.01912 8.43194 5.77325 8.39431 5.56456C8.67475 5.62931 8.80119 5.6875 9.1875 5.6875C9.338 5.6875 9.485 5.65512 9.625 5.61925V5.9885C9.59944 6.07309 9.59944 6.16335 9.625 6.24794V9.54275C9.61299 9.6015 9.61299 9.66207 9.625 9.72081V10.9375C9.625 11.1851 9.43512 11.375 9.1875 11.375H3.9375C3.68988 11.375 3.5 11.1851 3.5 10.9375V5.61925C3.64 5.65512 3.787 5.6875 3.9375 5.6875C4.298 5.6875 4.61519 5.5475 4.89431 5.35938ZM10.5 6.5625H10.9375C11.1851 6.5625 11.375 6.75238 11.375 7V8.75C11.375 8.99762 11.1851 9.1875 10.9375 9.1875H10.5V6.5625Z" fill="#54565A"/>
</svg>
