<svg width="17" height="16" viewBox="0 0 17 16" fill="none" xmlns="http://www.w3.org/2000/svg">
<path d="M2.125 11.5V14H4.78125L12.6154 6.62671L9.95917 4.12671L2.125 11.5ZM14.6696 4.69338C14.7352 4.6317 14.7873 4.55844 14.8229 4.47779C14.8584 4.39714 14.8767 4.31069 14.8767 4.22338C14.8767 4.13606 14.8584 4.04961 14.8229 3.96896C14.7873 3.88831 14.7352 3.81505 14.6696 3.75338L13.0121 2.19338C12.9466 2.13157 12.8687 2.08254 12.783 2.04909C12.6973 2.01563 12.6055 1.99841 12.5127 1.99841C12.4199 1.99841 12.3281 2.01563 12.2424 2.04909C12.1567 2.08254 12.0789 2.13157 12.0133 2.19338L10.7171 3.41338L13.3733 5.91338L14.6696 4.69338Z" fill="#5C26DA"/>
</svg>
