<svg width="13" height="14" viewBox="0 0 13 14" fill="none" xmlns="http://www.w3.org/2000/svg">
<path d="M1.39111 7C1.11324 7.60937 0.978819 8.30067 1.00271 8.99748C1.0266 9.69429 1.20788 10.3695 1.52649 10.9484C1.57544 11.0386 1.60298 11.1084 1.5945 11.1553C1.58603 11.2021 1.34175 12.7553 1.34175 12.7553C1.33587 12.7917 1.3381 12.8293 1.3482 12.8642C1.3583 12.8992 1.3759 12.9302 1.39916 12.954C1.4302 12.9841 1.4688 13.0004 1.50849 13C1.52969 13.0001 1.55068 12.9948 1.57014 12.9845L2.76103 12.4155C2.84299 12.3761 2.93442 12.3779 3.01526 12.4207C3.41653 12.6115 3.86017 12.731 4.30403 12.731C4.89964 12.7318 5.48479 12.54 6 12.1753M11.1458 8.18208C11.1199 8.08724 11.1769 7.9555 11.2312 7.86066C11.2478 7.83243 11.266 7.80516 11.2856 7.77898C11.7505 7.07575 11.9992 6.24753 12 5.39988C12.0077 2.97073 9.99394 1 7.50387 1C5.33218 1 3.52027 2.50439 3.09577 4.50146C3.03227 4.79746 3.00016 5.09954 3 5.40252C3 7.83431 4.93615 9.85773 7.42622 9.85773C7.82225 9.85773 8.35547 9.73653 8.64796 9.65486C8.94045 9.57319 9.23036 9.46516 9.30542 9.43618C9.38237 9.40665 9.46391 9.39148 9.54614 9.39139C9.63587 9.39104 9.72475 9.40896 9.80758 9.44409L11.2752 9.97365C11.3074 9.98751 11.3414 9.9964 11.3762 10C11.4311 10 11.4838 9.97779 11.5226 9.93827C11.5614 9.89874 11.5832 9.84513 11.5832 9.78923C11.5814 9.76511 11.5771 9.74126 11.5703 9.71809L11.1458 8.18208Z" stroke="#54565A" stroke-width="1.4" stroke-miterlimit="10" stroke-linecap="round"/>
</svg>
