<svg width="13" height="18" viewBox="0 0 13 18" fill="none" xmlns="http://www.w3.org/2000/svg">
<path d="M7.68734 0.530396C7.68734 0.530396 8.27317 2.62831 8.27317 4.33039C8.27317 5.96123 7.20442 7.28331 5.57359 7.28331C3.93484 7.28331 2.69984 5.96123 2.69984 4.33039L2.72359 4.0454C1.12442 5.9454 0.166504 8.40748 0.166504 11.0833C0.166504 14.5825 3.00067 17.4166 6.49984 17.4166C9.999 17.4166 12.8332 14.5825 12.8332 11.0833C12.8332 6.81623 10.7828 3.00831 7.68734 0.530396ZM6.27025 15.0416C4.86109 15.0416 3.72109 13.9333 3.72109 12.5558C3.72109 11.2733 4.55234 10.3708 5.94567 10.0858C7.34692 9.80081 8.79567 9.1279 9.60317 8.04331C9.91192 9.06456 10.0703 10.1412 10.0703 11.2416C10.0703 13.3396 8.36817 15.0416 6.27025 15.0416Z" fill="#CD014A"/>
</svg>
