<svg width="29" height="29" viewBox="0 0 29 29" fill="none" xmlns="http://www.w3.org/2000/svg">
<path d="M12.4181 19.9557C12.4241 19.8228 12.6428 19.7696 12.7081 19.8856C13.015 20.4294 13.537 21.2281 14.1291 21.5918C14.7211 21.9543 15.6709 22.0582 16.2944 22.0848C16.4273 22.0908 16.4793 22.3096 16.3633 22.3748C15.8195 22.6817 15.022 23.2037 14.6583 23.7958C14.2946 24.3879 14.1919 25.3376 14.1653 25.9611C14.1593 26.0941 13.9394 26.146 13.8753 26.03C13.5684 25.4863 13.0464 24.6888 12.4531 24.3251C11.861 23.9614 10.9113 23.8586 10.289 23.8321C10.1561 23.826 10.1029 23.6061 10.2189 23.5421C10.7626 23.2351 11.5614 22.7131 11.9251 22.1198C12.2876 21.5278 12.3915 20.578 12.4181 19.9557Z" fill="white"/>
<path opacity="0.5" d="M22.3446 18.7474C22.3338 18.6145 22.103 18.5589 22.0329 18.6725C21.825 19.0144 21.5254 19.4253 21.1907 19.6307C20.8572 19.8361 20.3545 19.9158 19.9558 19.9473C19.8228 19.9569 19.7673 20.1889 19.8808 20.2578C20.2216 20.4656 20.6336 20.7653 20.839 21.1C21.0445 21.4335 21.1242 21.9374 21.1556 22.3361C21.1653 22.469 21.3973 22.5234 21.4662 22.4098C21.674 22.0691 21.9737 21.657 22.3084 21.4528C22.6419 21.2474 23.1458 21.1665 23.5445 21.1363C23.6774 21.1254 23.7318 20.8946 23.6182 20.8245C23.2775 20.6167 22.8654 20.317 22.6612 19.9823C22.4558 19.6488 22.3748 19.1461 22.3446 18.7474Z" fill="white"/>
<path d="M17.7662 4.83581L17.4738 4.46606C16.3416 3.0366 15.7761 2.32127 15.1175 2.42639C14.4602 2.53272 14.1448 3.38822 13.5153 5.10043L13.3521 5.54268C13.1733 6.02964 13.0839 6.27252 12.9123 6.45135C12.7407 6.63018 12.5063 6.72322 12.0375 6.91051L11.6109 7.08089L11.3125 7.20172C9.86248 7.78172 9.13264 8.1116 9.03839 8.75202C8.93931 9.43472 9.63048 10.0196 11.0128 11.188L11.3705 11.4901C11.7644 11.8224 11.9601 11.9891 12.0725 12.2151C12.1861 12.4411 12.2018 12.7021 12.2332 13.2241L12.2622 13.6989C12.3758 15.5356 12.4314 16.4539 13.0295 16.7705C13.6264 17.0871 14.3684 16.5929 15.8522 15.6033L16.2364 15.3471C16.6581 15.0656 16.8684 14.9242 17.1101 14.8867C17.3517 14.8481 17.5946 14.9157 18.084 15.0511L18.5274 15.1743C20.2469 15.6504 21.106 15.8884 21.5736 15.4015C22.0425 14.9145 21.8093 14.024 21.3441 12.2441L21.2232 11.7837C21.0915 11.2774 21.0251 11.0249 21.0613 10.7748C21.0976 10.5246 21.2329 10.3047 21.5036 9.8661L21.7489 9.46735C22.6974 7.92551 23.1723 7.1546 22.8654 6.53593C22.5572 5.91968 21.6715 5.86289 19.9001 5.75293L19.4409 5.72393C18.9383 5.69252 18.6869 5.67681 18.4682 5.56081C18.2495 5.44481 18.0888 5.24181 17.7674 4.83581H17.7662Z" fill="white"/>
<path opacity="0.5" d="M10.6757 16.1023C8.09349 17.3638 5.94387 19.3624 5.13307 21.7501C4.22441 16.0624 5.48591 12.3891 7.50745 10.1053C7.68145 10.4618 7.90862 10.7566 8.11162 10.9874C8.53453 11.4659 9.14112 11.9783 9.75737 12.4991L10.2008 12.8736L10.4062 13.0488C10.4123 13.1262 10.4183 13.218 10.4244 13.3352L10.4606 13.9213C10.5089 14.7127 10.5573 15.4848 10.6757 16.1023Z" fill="white"/>
</svg>
