<svg width="13" height="13" viewBox="0 0 13 13" fill="none" xmlns="http://www.w3.org/2000/svg">
<path d="M0.40625 6.09375V9.14062H9.14062V6.09375H0.40625ZM8.32812 8.32812H1.21875V6.90625H8.32812V8.32812ZM9.75 6.09375H10.5625V9.14062H9.75V6.09375ZM11.1719 6.09375H11.9844V9.14062H11.1719V6.09375ZM9.78626 4.4002C9.68886 4.25325 9.64193 4.07859 9.65255 3.90261C9.66318 3.72664 9.73079 3.5589 9.84516 3.42474C10.0816 3.14975 10.2188 2.80332 10.2349 2.44102C10.2509 2.07872 10.1447 1.72153 9.9335 1.42675L9.78496 1.21875H8.85625L8.81004 1.25176L9.27233 1.89896C9.37774 2.04605 9.43069 2.22428 9.4227 2.40507C9.41471 2.58585 9.34623 2.75871 9.22825 2.89593C8.99905 3.16481 8.86357 3.50097 8.84228 3.85364C8.82099 4.2063 8.91503 4.55632 9.11021 4.85083L9.26174 5.07812H10.2383L9.78626 4.4002ZM11.6144 4.4002C11.517 4.25325 11.4701 4.07859 11.4807 3.90261C11.4913 3.72664 11.5589 3.5589 11.6733 3.42474C11.9097 3.14975 12.047 2.80332 12.063 2.44102C12.079 2.07872 11.9729 1.72153 11.7616 1.42675L11.6131 1.21875H10.6844L10.6382 1.25176L11.1005 1.89896C11.2059 2.04605 11.2588 2.22428 11.2508 2.40507C11.2428 2.58585 11.1744 2.75871 11.0564 2.89593C10.8272 3.16481 10.6917 3.50097 10.6704 3.85364C10.6491 4.2063 10.7432 4.55632 10.9383 4.85083L11.0899 5.07812H12.0664L11.6144 4.4002Z" fill="#54565A"/>
</svg>
