<svg width="14" height="13" viewBox="0 0 14 13" fill="none" xmlns="http://www.w3.org/2000/svg">
<path d="M10.1488 8.22924C9.33079 9.32 8.30592 10.0582 7.3422 10.3925C6.37391 10.7284 5.55019 10.6375 4.99042 10.2278C4.43064 9.81809 4.10266 9.06612 4.14596 8.05321C4.18905 7.04506 4.60543 5.86151 5.42347 4.77076C6.2415 3.68 7.26637 2.9418 8.23009 2.60747C9.19838 2.27156 10.0221 2.36251 10.5819 2.77221C11.1416 3.18191 11.4696 3.93388 11.4263 4.94679C11.3832 5.95493 10.9669 7.13848 10.1488 8.22924Z" stroke="white" stroke-width="1.5"/>
<mask id="mask0_66_247" style="mask-type:alpha" maskUnits="userSpaceOnUse" x="0" y="1" width="11" height="11">
<path d="M4.48004 3.70896L5.88006 2.32591L2.7022 1.11548L0.443522 2.73824C0.443522 2.73824 -0.788487 5.27381 0.854197 8.01222C2.49688 10.7506 5.37153 11.6634 6.39821 11.562C7.42488 11.4606 10.0942 10.1421 10.0942 10.1421L7.92245 3.98557L6.19287 5.64522L6.50087 9.53356L2.49686 6.89657L4.48004 3.70896Z" fill="#D9D9D9"/>
</mask>
<g mask="url(#mask0_66_247)">
<path d="M2.34385 8.22924C3.16189 9.32 4.18676 10.0582 5.15048 10.3925C6.11877 10.7284 6.94249 10.6375 7.50226 10.2278C8.06203 9.81809 8.39001 9.06612 8.34672 8.05321C8.30363 7.04506 7.88724 5.86151 7.06921 4.77076C6.25118 3.68 5.22631 2.9418 4.26258 2.60747C3.2943 2.27156 2.47058 2.36251 1.9108 2.77221C1.35103 3.18191 1.02305 3.93388 1.06634 4.94679C1.10943 5.95493 1.52582 7.13848 2.34385 8.22924Z" stroke="white" stroke-width="1.5"/>
</g>
</svg>
