<svg width="23" height="23" viewBox="0 0 23 23" fill="none" xmlns="http://www.w3.org/2000/svg">
<rect x="6" y="8" width="12" height="8" fill="white"/>
<path fill-rule="evenodd" clip-rule="evenodd" d="M9.19242 3.06662C9.0417 3.203 8.88332 3.33067 8.71804 3.449C8.43246 3.64067 8.11142 3.77292 7.77409 3.84C7.62746 3.86875 7.47413 3.88121 7.16842 3.90516C6.40079 3.9665 6.0165 3.99717 5.69642 4.11025C5.33043 4.23947 4.99802 4.44899 4.72357 4.72344C4.44912 4.99789 4.2396 5.3303 4.11038 5.69629C3.99729 6.01637 3.96663 6.40067 3.90529 7.16829C3.89484 7.37123 3.87308 7.57344 3.84013 7.77396C3.77304 8.11129 3.64079 8.43233 3.44913 8.71792C3.36575 8.8425 3.26609 8.95941 3.06675 9.19229C2.56746 9.77879 2.31734 10.072 2.17071 10.3787C1.83242 11.0879 1.83242 11.912 2.17071 12.6212C2.31734 12.9279 2.56746 13.2211 3.06675 13.8076C3.26609 14.0405 3.36575 14.1574 3.44913 14.282C3.64079 14.5676 3.77304 14.8886 3.84013 15.226C3.86888 15.3726 3.88134 15.5259 3.90529 15.8316C3.96663 16.5992 3.99729 16.9835 4.11038 17.3036C4.2396 17.6696 4.44912 18.002 4.72357 18.2765C4.99802 18.5509 5.33043 18.7604 5.69642 18.8897C6.0165 19.0027 6.40079 19.0334 7.16842 19.0947C7.47413 19.1187 7.62746 19.1312 7.77409 19.1599C8.11142 19.227 8.43246 19.3602 8.71804 19.5509C8.84263 19.6343 8.95954 19.734 9.19242 19.9333C9.77892 20.4326 10.0722 20.6827 10.3788 20.8293C11.088 21.1676 11.9122 21.1676 12.6213 20.8293C12.928 20.6827 13.2213 20.4326 13.8078 19.9333C14.0406 19.734 14.1575 19.6343 14.2821 19.5509C14.5677 19.3592 14.8888 19.227 15.2261 19.1599C15.3727 19.1312 15.526 19.1187 15.8318 19.0947C16.5994 19.0334 16.9837 19.0027 17.3038 18.8897C17.6697 18.7604 18.0022 18.5509 18.2766 18.2765C18.5511 18.002 18.7606 17.6696 18.8898 17.3036C19.0029 16.9835 19.0335 16.5992 19.0949 15.8316C19.1188 15.5259 19.1313 15.3726 19.16 15.226C19.2271 14.8886 19.3603 14.5676 19.551 14.282C19.6344 14.1574 19.7341 14.0405 19.9334 13.8076C20.4327 13.2211 20.6828 12.9279 20.8295 12.6212C21.1678 11.912 21.1678 11.0879 20.8295 10.3787C20.6828 10.072 20.4327 9.77879 19.9334 9.19229C19.797 9.04157 19.6694 8.88319 19.551 8.71792C19.3596 8.43222 19.2267 8.11137 19.16 7.77396C19.1271 7.57343 19.1054 7.37123 19.0949 7.16829C19.0335 6.40067 19.0029 6.01637 18.8898 5.69629C18.7606 5.3303 18.5511 4.99789 18.2766 4.72344C18.0022 4.44899 17.6697 4.23947 17.3038 4.11025C16.9837 3.99717 16.5994 3.9665 15.8318 3.90516C15.6288 3.89471 15.4266 3.87296 15.2261 3.84C14.8887 3.77338 14.5678 3.64048 14.2821 3.449C14.117 3.33042 13.9587 3.20276 13.8078 3.06662C13.2213 2.56733 12.928 2.31721 12.6213 2.17058C12.2712 2.00324 11.8881 1.91638 11.5001 1.91638C11.112 1.91638 10.7289 2.00324 10.3788 2.17058C10.0722 2.31721 9.77892 2.56733 9.19242 3.06662ZM15.6909 9.452C15.8263 9.30375 15.8994 9.10899 15.8949 8.90823C15.8903 8.70748 15.8086 8.51621 15.6666 8.37422C15.5246 8.23223 15.3333 8.15046 15.1326 8.14593C14.9318 8.14141 14.737 8.21447 14.5888 8.34992L9.94088 12.9978L8.41138 11.4693C8.26313 11.3338 8.06837 11.2608 7.86761 11.2653C7.66686 11.2698 7.47558 11.3516 7.33359 11.4936C7.1916 11.6356 7.10984 11.8269 7.10531 12.0276C7.10079 12.2284 7.17385 12.4231 7.30929 12.5714L9.38888 14.651C9.53513 14.7969 9.7333 14.8789 9.93992 14.8789C10.1465 14.8789 10.3447 14.7969 10.491 14.651L15.6918 9.452H15.6909Z" fill="#936EEB"/>
</svg>
