<svg width="34" height="32" viewBox="0 0 32 31" fill="none" xmlns="http://www.w3.org/2000/svg">
<path d="M23.4562 19.2319C21.5519 21.8023 19.1572 23.5548 16.8845 24.3529C14.6028 25.1542 12.6006 24.9567 11.212 23.9279C9.82345 22.8992 9.0514 21.0412 9.15342 18.6252C9.25504 16.2185 10.2342 13.4172 12.1385 10.8469C14.0428 8.27652 16.4376 6.52396 18.7103 5.72586C20.9919 4.92462 22.9941 5.12208 24.3827 6.15084C25.7713 7.1796 26.5433 9.03756 26.4413 11.4536C26.3397 13.8602 25.3605 16.6616 23.4562 19.2319Z" stroke="#FFC93E" stroke-width="2.8"/>
<mask id="mask0_17_1143" style="mask-type:alpha" maskUnits="userSpaceOnUse" x="0" y="2" width="25" height="27">
<path d="M10.2401 8.58185L13.4401 5.38182L6.17645 2.58118L1.01376 6.33585C1.01376 6.33585 -1.80225 12.2025 1.95245 18.5385C5.70714 24.8745 12.2777 26.9865 14.6244 26.7519C16.9711 26.5172 23.0724 23.4665 23.0724 23.4665L18.1084 9.22185L14.1551 13.0619L14.8591 22.0585L5.7071 15.9572L10.2401 8.58185Z" fill="#D9D9D9"/>
</mask>
<g mask="url(#mask0_17_1143)">
<path d="M5.09849 19.232C7.00282 21.8024 9.39753 23.5549 11.6702 24.3531C13.9518 25.1543 15.9541 24.9568 17.3427 23.9281C18.7312 22.8993 19.5033 21.0414 19.4013 18.6253C19.2997 16.2187 18.3205 13.4174 16.4162 10.847C14.5118 8.27664 12.1171 6.52409 9.84444 5.72598C7.56282 4.92474 5.56055 5.1222 4.17199 6.15096C2.78342 7.17972 2.01138 9.03768 2.11339 11.4537C2.21501 13.8604 3.19416 16.6617 5.09849 19.232Z" stroke="#FFC93E" stroke-width="2.8"/>
</g>
</svg>
