<svg width="34" height="32" viewBox="0 0 34 32" fill="none" xmlns="http://www.w3.org/2000/svg">
<path d="M24.9926 20.486C22.9602 23.2292 20.4021 25.1031 17.9688 25.9576C15.5265 26.8153 13.3664 26.6093 11.8607 25.4938C10.3551 24.3783 9.52894 22.3718 9.63814 19.7856C9.74693 17.2089 10.7946 14.2159 12.8269 11.4727C14.8593 8.72956 17.4174 6.8557 19.8507 6.00117C22.293 5.14352 24.4532 5.34947 25.9588 6.46497C27.4645 7.58048 28.2906 9.58702 28.1814 12.1732C28.0726 14.7499 27.025 17.7429 24.9926 20.486Z" stroke="#909192" stroke-width="2.8"/>
<mask id="mask0_17_1282" style="mask-type:alpha" maskUnits="userSpaceOnUse" x="0" y="2" width="25" height="27">
<path d="M10.8801 9.11828L14.2801 5.71825L6.56249 2.74255L1.07712 6.7319C1.07712 6.7319 -1.9149 12.9653 2.07448 19.6973C6.06385 26.4293 13.0451 28.6733 15.5385 28.424C18.0319 28.1746 24.5145 24.9333 24.5145 24.9333L19.2402 9.79829L15.0398 13.8783L15.7878 23.4373L6.0638 16.9546L10.8801 9.11828Z" fill="#D9D9D9"/>
</mask>
<g mask="url(#mask0_17_1282)">
<path d="M5.34675 20.4862C7.37912 23.2294 9.93721 25.1032 12.3705 25.9577C14.8128 26.8154 16.973 26.6094 18.4786 25.4939C19.9843 24.3784 20.8104 22.3719 20.7012 19.7857C20.5924 17.209 19.5448 14.2161 17.5124 11.4729C15.4801 8.72968 12.922 6.85582 10.4886 6.0013C8.04637 5.14364 5.88621 5.34959 4.38056 6.4651C2.8749 7.5806 2.04876 9.58715 2.15796 12.1733C2.26676 14.75 3.31438 17.743 5.34675 20.4862Z" stroke="#909192" stroke-width="2.8"/>
</g>
</svg>
