<svg width="13" height="11" viewBox="0 0 13 11" fill="none" xmlns="http://www.w3.org/2000/svg">
<path d="M11.8198 6.00175C11.6407 5.8645 11.4321 5.77079 11.2105 5.72804C11.994 4.83683 12.3906 3.9446 12.3906 3.06253C12.3906 1.60663 11.2181 0.421905 9.77742 0.421905C9.08363 0.418578 8.41665 0.689641 7.92188 1.17601C7.4271 0.689641 6.76012 0.418578 6.06633 0.421905C4.62566 0.421905 3.45312 1.60663 3.45312 3.06253C3.45312 3.57796 3.59125 4.09339 3.87055 4.62151C3.64761 4.71352 3.44515 4.84884 3.27488 5.01964L2.18359 6.10941H1.01562C0.746265 6.10941 0.487936 6.21641 0.29747 6.40687C0.107003 6.59734 0 6.85567 0 7.12503L0 9.15628C0 9.42564 0.107003 9.68397 0.29747 9.87444C0.487936 10.0649 0.746265 10.1719 1.01562 10.1719H6.09375C6.14357 10.1719 6.19321 10.1658 6.24152 10.1536L9.49152 9.34112C9.52261 9.3335 9.55302 9.32331 9.58242 9.31065L11.5538 8.47073C11.5654 8.46616 11.5766 8.46108 11.5878 8.4555C11.8082 8.3452 11.997 8.18062 12.1363 7.97725C12.2757 7.77387 12.3609 7.53839 12.3841 7.29297C12.4074 7.04755 12.3677 6.80025 12.269 6.57436C12.1703 6.34848 12.0157 6.15142 11.8198 6.00175ZM6.06633 1.64066C6.34089 1.63642 6.61047 1.71417 6.8406 1.86398C7.07073 2.01378 7.25095 2.22882 7.3582 2.48159C7.40411 2.59336 7.48221 2.68895 7.58258 2.75623C7.68295 2.8235 7.80105 2.85943 7.92188 2.85943C8.0427 2.85943 8.1608 2.8235 8.26117 2.75623C8.36154 2.68895 8.43964 2.59336 8.48555 2.48159C8.5928 2.22882 8.77302 2.01378 9.00315 1.86398C9.23328 1.71417 9.50286 1.63642 9.77742 1.64066C10.533 1.64066 11.1719 2.29167 11.1719 3.06253C11.1719 3.97964 10.4102 5.03487 8.96898 6.11905L8.73438 6.17339V6.10941C8.73438 5.67843 8.56317 5.2651 8.25842 4.96036C7.95368 4.65561 7.54035 4.48441 7.10938 4.48441H5.21574C4.84555 3.96441 4.67188 3.50788 4.67188 3.06253C4.67188 2.29167 5.3107 1.64066 6.06633 1.64066ZM1.21875 7.32816H1.82812V8.95316H1.21875V7.32816ZM11.0541 7.35913L9.14926 8.17163L6.01859 8.95316H3.04688V6.97269L4.13664 5.88292C4.19297 5.82598 4.26003 5.78077 4.33395 5.74991C4.40787 5.71906 4.48717 5.70316 4.56727 5.70316H7.10938C7.21712 5.70316 7.32045 5.74596 7.39664 5.82214C7.47282 5.89833 7.51562 6.00166 7.51562 6.10941C7.51562 6.21715 7.47282 6.32048 7.39664 6.39667C7.32045 6.47285 7.21712 6.51566 7.10938 6.51566H5.6875C5.52588 6.51566 5.37089 6.57986 5.25661 6.69414C5.14233 6.80842 5.07812 6.96341 5.07812 7.12503C5.07812 7.28665 5.14233 7.44164 5.25661 7.55592C5.37089 7.6702 5.52588 7.73441 5.6875 7.73441H7.3125C7.35846 7.73441 7.40427 7.7293 7.4491 7.71917L10.8514 6.93663L10.8753 6.93054C10.91 6.9211 10.9464 6.91978 10.9817 6.92668C11.017 6.93358 11.0502 6.9485 11.0787 6.97031C11.1073 6.99211 11.1305 7.0202 11.1465 7.05241C11.1625 7.08461 11.1708 7.12006 11.1709 7.15601C11.1711 7.19717 11.1604 7.23767 11.1399 7.27335C11.1194 7.30904 11.0898 7.33864 11.0541 7.35913Z" fill="#54565A"/>
</svg>
