<svg width="13" height="13" viewBox="0 0 13 13" fill="none" xmlns="http://www.w3.org/2000/svg">
<path d="M6.77826 1.43792C6.70152 1.36971 6.60241 1.33203 6.49974 1.33203C6.39706 1.33203 6.29796 1.36971 6.22121 1.43792C5.82174 1.79168 5.50316 2.22733 5.28713 2.71524C5.07111 3.20315 4.96271 3.73187 4.96931 4.26542C4.96995 4.32133 4.985 4.37614 5.01301 4.42453C5.04102 4.47292 5.08105 4.51327 5.12921 4.54167C5.55038 4.79082 5.93111 5.10272 6.25826 5.46662C6.28874 5.50045 6.32598 5.5275 6.36758 5.54602C6.40918 5.56453 6.45421 5.5741 6.49974 5.5741C6.54527 5.5741 6.5903 5.56453 6.6319 5.54602C6.67349 5.5275 6.71074 5.50045 6.74121 5.46662C7.06847 5.10319 7.44919 4.79173 7.87026 4.54297C7.91831 4.51449 7.9582 4.47411 7.9861 4.42572C8.01399 4.37733 8.02894 4.32257 8.02951 4.26672C8.03629 3.73311 7.92804 3.2043 7.71213 2.71627C7.49621 2.22825 7.1777 1.79246 6.77826 1.43857V1.43792ZM1.96046 7.93532C1.95538 7.87869 1.96156 7.82161 1.97864 7.76737C1.99572 7.71314 2.02337 7.66282 2.05998 7.61932C2.0966 7.57581 2.14146 7.53998 2.19198 7.5139C2.24251 7.48781 2.29769 7.47198 2.35436 7.46732C3.21979 7.39536 4.08591 7.59758 4.82999 8.04534C5.57407 8.49309 6.15836 9.16366 6.50006 9.96202C6.84173 9.16378 7.42592 8.49328 8.16987 8.04554C8.91382 7.59779 9.7798 7.3955 10.6451 7.46732C10.883 7.48682 11.0611 7.69612 11.039 7.93532C10.9456 8.96418 10.4708 9.9209 9.70787 10.6175C8.94498 11.3141 7.94916 11.7003 6.91606 11.7001H6.61381C6.57515 11.7001 6.53668 11.6948 6.49941 11.6845C6.46194 11.6949 6.42324 11.7001 6.38436 11.7001H6.08211C5.04913 11.7001 4.05347 11.3139 3.29072 10.6173C2.52797 9.9207 2.0539 8.96407 1.96046 7.93532ZM6.50006 7.03702C6.15836 6.23866 5.57407 5.56809 4.82999 5.12034C4.08591 4.67258 3.21979 4.47036 2.35436 4.54232C2.29769 4.54698 2.24251 4.56281 2.19198 4.5889C2.14146 4.61499 2.0966 4.65081 2.05998 4.69432C2.02337 4.73782 1.99572 4.78814 1.97864 4.84237C1.96156 4.89661 1.95538 4.95369 1.96046 5.01032C2.0117 5.58062 2.18104 6.13401 2.45771 6.63532C2.48563 6.68579 2.52647 6.72792 2.57604 6.75739C2.62562 6.78686 2.68214 6.80261 2.73981 6.80302C3.39713 6.80866 4.04622 6.94975 4.64656 7.21749C5.2469 7.48523 5.7856 7.87386 6.22901 8.35912C6.26304 8.39628 6.30524 8.42502 6.35228 8.44307C6.39932 8.46112 6.44991 8.46798 6.50006 8.46312C6.55011 8.46788 6.60057 8.46096 6.64749 8.44292C6.69441 8.42487 6.73651 8.39619 6.77046 8.35912C7.21388 7.87386 7.75257 7.48523 8.35292 7.21749C8.95326 6.94975 9.60235 6.80866 10.2597 6.80302C10.3174 6.80255 10.374 6.7867 10.4236 6.75711C10.4731 6.72752 10.5139 6.68526 10.5418 6.63467C10.8183 6.13356 10.9877 5.58039 11.039 5.01032C11.0441 4.95369 11.0379 4.89661 11.0208 4.84237C11.0038 4.78814 10.9761 4.73782 10.9395 4.69432C10.9029 4.65081 10.858 4.61499 10.8075 4.5889C10.757 4.56281 10.7018 4.54698 10.6451 4.54232C9.7798 4.4705 8.91382 4.67279 8.16987 5.12054C7.42592 5.56828 6.84173 6.23878 6.50006 7.03702Z" fill="#54565A"/>
</svg>
