<svg width="127" height="117" viewBox="0 0 127 117" fill="none" xmlns="http://www.w3.org/2000/svg">
<path d="M77.0433 27.1111C109.404 25.1022 114.496 15.7232 126.5 2V115C117.952 100.938 110.014 91.3956 77.0433 91.3956H42.851C42.851 91.3956 1 94 1 59C1 24 42.851 27.1111 42.851 27.1111H77.0433Z" fill="#0A0D13" stroke="#0A0D13"/>
<g opacity="0.9">
<path d="M69.0663 50.6497C68.9654 50.7503 68.8854 50.8699 68.8308 51.0015C68.7762 51.1331 68.7481 51.2742 68.7481 51.4167C68.7481 51.5592 68.7762 51.7003 68.8308 51.8319C68.8854 51.9635 68.9654 52.0831 69.0663 52.1837L75.8848 59L69.0663 65.8164C68.9656 65.9171 68.8857 66.0367 68.8312 66.1683C68.7767 66.2999 68.7486 66.4409 68.7486 66.5834C68.7486 66.7258 68.7767 66.8669 68.8312 66.9985C68.8857 67.1301 68.9656 67.2496 69.0663 67.3504C69.1671 67.4511 69.2866 67.531 69.4182 67.5855C69.5498 67.64 69.6909 67.6681 69.8333 67.6681C69.9758 67.6681 70.1168 67.64 70.2484 67.5855C70.38 67.531 70.4996 67.4511 70.6003 67.3504L78.1837 59.767C78.2846 59.6664 78.3646 59.5468 78.4192 59.4152C78.4738 59.2836 78.5019 59.1425 78.5019 59C78.5019 58.8575 78.4738 58.7164 78.4192 58.5848C78.3646 58.4532 78.2846 58.3337 78.1837 58.233L70.6003 50.6497C70.4997 50.5488 70.3802 50.4688 70.2485 50.4141C70.1169 50.3595 69.9758 50.3314 69.8333 50.3314C69.6908 50.3314 69.5497 50.3595 69.4181 50.4141C69.2865 50.4688 69.167 50.5488 69.0663 50.6497Z" fill="white"/>
</g>
<g opacity="0.6">
<path d="M58.0663 50.6497C57.9654 50.7503 57.8854 50.8699 57.8308 51.0015C57.7762 51.1331 57.7481 51.2742 57.7481 51.4167C57.7481 51.5592 57.7762 51.7003 57.8308 51.8319C57.8854 51.9635 57.9654 52.0831 58.0663 52.1837L64.8848 59L58.0663 65.8164C57.9656 65.9171 57.8857 66.0367 57.8312 66.1683C57.7767 66.2999 57.7486 66.4409 57.7486 66.5834C57.7486 66.7258 57.7767 66.8669 57.8312 66.9985C57.8857 67.1301 57.9656 67.2496 58.0663 67.3504C58.1671 67.4511 58.2866 67.531 58.4182 67.5855C58.5498 67.64 58.6909 67.6681 58.8333 67.6681C58.9758 67.6681 59.1168 67.64 59.2484 67.5855C59.38 67.531 59.4996 67.4511 59.6003 67.3504L67.1837 59.767C67.2846 59.6664 67.3646 59.5468 67.4192 59.4152C67.4738 59.2836 67.5019 59.1425 67.5019 59C67.5019 58.8575 67.4738 58.7164 67.4192 58.5848C67.3646 58.4532 67.2846 58.3337 67.1837 58.233L59.6003 50.6497C59.4997 50.5488 59.3802 50.4688 59.2485 50.4141C59.1169 50.3595 58.9758 50.3314 58.8333 50.3314C58.6908 50.3314 58.5497 50.3595 58.4181 50.4141C58.2865 50.4688 58.167 50.5488 58.0663 50.6497Z" fill="white"/>
</g>
<g opacity="0.25">
<path d="M47.0663 50.6497C46.9654 50.7503 46.8854 50.8699 46.8308 51.0015C46.7762 51.1331 46.7481 51.2742 46.7481 51.4167C46.7481 51.5592 46.7762 51.7003 46.8308 51.8319C46.8854 51.9635 46.9654 52.0831 47.0663 52.1837L53.8848 59L47.0663 65.8164C46.9656 65.9171 46.8857 66.0367 46.8312 66.1683C46.7767 66.2999 46.7486 66.4409 46.7486 66.5834C46.7486 66.7258 46.7767 66.8669 46.8312 66.9985C46.8857 67.1301 46.9656 67.2496 47.0663 67.3504C47.1671 67.4511 47.2866 67.531 47.4182 67.5855C47.5498 67.64 47.6909 67.6681 47.8333 67.6681C47.9758 67.6681 48.1168 67.64 48.2484 67.5855C48.38 67.531 48.4996 67.4511 48.6003 67.3504L56.1837 59.767C56.2846 59.6664 56.3646 59.5468 56.4192 59.4152C56.4738 59.2836 56.5019 59.1425 56.5019 59C56.5019 58.8575 56.4738 58.7164 56.4192 58.5848C56.3646 58.4532 56.2846 58.3337 56.1837 58.233L48.6003 50.6497C48.4997 50.5488 48.3802 50.4688 48.2485 50.4141C48.1169 50.3595 47.9758 50.3314 47.8333 50.3314C47.6908 50.3314 47.5497 50.3595 47.4181 50.4141C47.2865 50.4688 47.167 50.5488 47.0663 50.6497Z" fill="white"/>
</g>
<g opacity="0.1">
<path d="M36.0663 50.6497C35.9654 50.7503 35.8854 50.8699 35.8308 51.0015C35.7762 51.1331 35.7481 51.2742 35.7481 51.4167C35.7481 51.5592 35.7762 51.7003 35.8308 51.8319C35.8854 51.9635 35.9654 52.0831 36.0663 52.1837L42.8848 59L36.0663 65.8164C35.9656 65.9171 35.8857 66.0367 35.8312 66.1683C35.7767 66.2999 35.7486 66.4409 35.7486 66.5834C35.7486 66.7258 35.7767 66.8669 35.8312 66.9985C35.8857 67.1301 35.9656 67.2496 36.0663 67.3504C36.1671 67.4511 36.2866 67.531 36.4182 67.5855C36.5498 67.64 36.6909 67.6681 36.8333 67.6681C36.9758 67.6681 37.1168 67.64 37.2484 67.5855C37.38 67.531 37.4996 67.4511 37.6003 67.3504L45.1837 59.767C45.2846 59.6664 45.3646 59.5468 45.4192 59.4152C45.4738 59.2836 45.5019 59.1425 45.5019 59C45.5019 58.8575 45.4738 58.7164 45.4192 58.5848C45.3646 58.4532 45.2846 58.3337 45.1837 58.233L37.6003 50.6497C37.4997 50.5488 37.3802 50.4688 37.2485 50.4141C37.1169 50.3595 36.9758 50.3314 36.8333 50.3314C36.6908 50.3314 36.5497 50.3595 36.4181 50.4141C36.2865 50.4688 36.167 50.5488 36.0663 50.6497Z" fill="white"/>
</g>
</svg>
