<svg width="212" height="132" viewBox="0 0 212 132" fill="none" xmlns="http://www.w3.org/2000/svg">
<path d="M119.372 81.0697C116.925 84.3731 113.839 86.6365 110.894 87.6709C107.939 88.7087 105.291 88.4702 103.431 87.0922C101.571 85.7142 100.572 83.2512 100.704 80.1218C100.836 77.0025 102.103 73.3919 104.55 70.0885C106.998 66.7852 110.083 64.5218 113.028 63.4874C115.984 62.4496 118.631 62.6881 120.491 64.0661C122.351 65.4441 123.35 67.9071 123.218 71.0365C123.086 74.1558 121.819 77.7664 119.372 81.0697Z" stroke="#FFC93E" stroke-width="3"/>
<mask id="mask0_4_87" style="mask-type:alpha" maskUnits="userSpaceOnUse" x="89" y="59" width="30" height="32">
<path d="M103.758 66.9092L107.335 63.3326L97.2008 59.7559L90.6436 64.5248C90.6436 64.5248 87.0669 71.9762 91.8358 80.0237C96.6047 88.0712 104.95 90.7537 107.931 90.4556C110.911 90.1576 118.661 86.2828 118.661 86.2828L116.225 76.4401L111.885 68.0573L107.335 72.5838L110.922 82.7065L96.6047 76.7451L103.758 66.9092Z" fill="#D9D9D9"/>
</mask>
<g mask="url(#mask0_4_87)">
<path d="M95.6085 81.0697C98.0559 84.3731 101.141 86.6365 104.087 87.6709C107.042 88.7087 109.689 88.4702 111.549 87.0922C113.409 85.7142 114.408 83.2512 114.276 80.1218C114.144 77.0025 112.878 73.3919 110.43 70.0885C107.983 66.7852 104.898 64.5218 101.952 63.4874C98.9969 62.4496 96.3496 62.6881 94.4897 64.0661C92.6297 65.4441 91.6305 67.9071 91.7627 71.0365C91.8944 74.1558 93.1611 77.7664 95.6085 81.0697Z" stroke="white" stroke-width="3"/>
</g>
<mask id="mask1_4_87" style="mask-type:alpha" maskUnits="userSpaceOnUse" x="82" y="48" width="38" height="48">
<path d="M115.867 54.5931L119.555 50.0864C119.555 50.0864 106.834 45.392 96.439 50.0864C86.0444 54.7808 80.4944 67.2454 82.3559 77.2467C84.2174 87.2479 91.0328 92.148 97.4244 95.1658L99.4362 89.8008C99.4362 89.8008 96.439 89.8008 91.4094 85.2942C86.3797 80.7875 83.6972 66.7679 93.7566 57.7986C103.816 48.8292 115.867 54.5931 115.867 54.5931Z" fill="#D9D9D9"/>
</mask>
<g mask="url(#mask1_4_87)">
<circle cx="106.498" cy="72.217" r="21.9718" stroke="white" stroke-width="3"/>
</g>
<path d="M94.0508 91.8652L96.4611 90.4191C98.8713 91.8652 100.613 91.7568 99.8353 93.3114C98.8713 95.2395 94.0508 91.8652 94.0508 91.8652Z" fill="white" stroke="white" stroke-width="0.4"/>
<path d="M118.661 54.6891C117.723 55.1116 116.308 53.8263 114.296 52.8204L116.707 51.3743C119.599 52.3383 119.599 54.2665 118.661 54.6891Z" fill="white" stroke="white" stroke-width="0.4"/>
<circle cx="125" cy="58.2036" r="2" fill="#FFC93E"/>
<circle cx="127.5" cy="63.7036" r="1.5" fill="white"/>
<circle cx="105.5" cy="94.7036" r="1.5" fill="#FFC93E"/>
<path d="M63.8486 120.192C62.8086 120.192 61.8886 120.04 61.0886 119.736C60.2886 119.432 59.6646 119.064 59.2166 118.632C58.7686 118.184 58.5446 117.76 58.5446 117.36C58.5446 117.168 58.5926 116.968 58.6886 116.76C58.8006 116.552 58.9366 116.376 59.0966 116.232C59.2726 116.072 59.4566 115.992 59.6486 115.992C59.8726 115.992 60.0806 116.088 60.2726 116.28C60.4806 116.456 60.7286 116.672 61.0166 116.928C61.3046 117.184 61.6646 117.408 62.0966 117.6C62.5286 117.792 63.0806 117.888 63.7526 117.888C64.3286 117.888 64.8406 117.8 65.2886 117.624C65.7526 117.432 66.1126 117.152 66.3686 116.784C66.6406 116.4 66.7766 115.92 66.7766 115.344C66.7766 114.736 66.6326 114.232 66.3446 113.832C66.0726 113.432 65.6966 113.096 65.2166 112.824C64.7526 112.552 64.2486 112.304 63.7046 112.08C63.1606 111.856 62.6086 111.616 62.0486 111.36C61.4886 111.104 60.9766 110.8 60.5126 110.448C60.0486 110.08 59.6726 109.624 59.3846 109.08C59.1126 108.52 58.9766 107.824 58.9766 106.992C58.9766 106.112 59.1366 105.376 59.4566 104.784C59.7926 104.192 60.2326 103.72 60.7766 103.368C61.3206 103.016 61.9206 102.768 62.5766 102.624C63.2326 102.464 63.8806 102.384 64.5206 102.384C64.9206 102.384 65.3606 102.416 65.8406 102.48C66.3366 102.528 66.8166 102.624 67.2806 102.768C67.7446 102.896 68.1286 103.072 68.4326 103.296C68.7366 103.52 68.8886 103.792 68.8886 104.112C68.8886 104.272 68.8486 104.464 68.7686 104.688C68.6886 104.896 68.5686 105.08 68.4086 105.24C68.2646 105.4 68.0726 105.48 67.8326 105.48C67.6246 105.48 67.3926 105.408 67.1366 105.264C66.8806 105.104 66.5446 104.952 66.1286 104.808C65.7286 104.648 65.1926 104.568 64.5206 104.568C63.9446 104.568 63.4246 104.648 62.9606 104.808C62.5126 104.968 62.1606 105.208 61.9046 105.528C61.6486 105.832 61.5206 106.24 61.5206 106.752C61.5206 107.264 61.6566 107.688 61.9286 108.024C62.2166 108.344 62.5926 108.624 63.0566 108.864C63.5206 109.088 64.0246 109.304 64.5686 109.512C65.1286 109.72 65.6806 109.968 66.2246 110.256C66.7846 110.528 67.2966 110.864 67.7606 111.264C68.2406 111.664 68.6166 112.176 68.8886 112.8C69.1766 113.408 69.3206 114.168 69.3206 115.08C69.3206 116.232 69.0806 117.192 68.6006 117.96C68.1366 118.712 67.4886 119.272 66.6566 119.64C65.8406 120.008 64.9046 120.192 63.8486 120.192ZM76.1544 120.192C75.2904 120.192 74.4824 119.968 73.7304 119.52C72.9784 119.072 72.3704 118.488 71.9064 117.768C71.4584 117.032 71.2344 116.248 71.2344 115.416V113.208C71.2344 112.36 71.4504 111.576 71.8824 110.856C72.3304 110.136 72.9304 109.56 73.6824 109.128C74.4504 108.696 75.2824 108.48 76.1784 108.48C77.0744 108.48 77.8984 108.696 78.6504 109.128C79.4024 109.544 80.0024 110.112 80.4504 110.832C80.9144 111.536 81.1464 112.328 81.1464 113.208V115.416C81.1464 116.232 80.9144 117.008 80.4504 117.744C80.0024 118.48 79.3944 119.072 78.6264 119.52C77.8744 119.968 77.0504 120.192 76.1544 120.192ZM76.1784 117.96C76.6264 117.96 77.0344 117.84 77.4024 117.6C77.7704 117.36 78.0664 117.048 78.2904 116.664C78.5144 116.264 78.6264 115.848 78.6264 115.416V113.208C78.6264 112.792 78.5144 112.392 78.2904 112.008C78.0664 111.624 77.7704 111.312 77.4024 111.072C77.0344 110.832 76.6264 110.712 76.1784 110.712C75.7144 110.712 75.2984 110.832 74.9304 111.072C74.5784 111.312 74.2904 111.624 74.0664 112.008C73.8584 112.392 73.7544 112.792 73.7544 113.208V115.416C73.7544 115.848 73.8584 116.264 74.0664 116.664C74.2904 117.048 74.5864 117.36 74.9544 117.6C75.3224 117.84 75.7304 117.96 76.1784 117.96ZM87.7074 120.24C87.4354 120.24 87.1874 120.192 86.9634 120.096C86.7554 120.016 86.6194 119.896 86.5554 119.736L82.5234 110.016C82.5074 109.968 82.4834 109.904 82.4514 109.824C82.4354 109.744 82.4274 109.672 82.4274 109.608C82.4274 109.4 82.5154 109.216 82.6914 109.056C82.8834 108.896 83.0994 108.768 83.3394 108.672C83.5954 108.576 83.8354 108.528 84.0594 108.528C84.2194 108.528 84.3714 108.568 84.5154 108.648C84.6754 108.712 84.7794 108.824 84.8274 108.984L87.7074 116.568L90.5394 109.032C90.6034 108.872 90.6994 108.752 90.8274 108.672C90.9554 108.576 91.1154 108.528 91.3074 108.528C91.4834 108.528 91.6994 108.576 91.9554 108.672C92.2274 108.768 92.4594 108.904 92.6514 109.08C92.8594 109.24 92.9634 109.416 92.9634 109.608C92.9634 109.688 92.9554 109.76 92.9394 109.824C92.9234 109.888 92.8994 109.952 92.8674 110.016L88.8594 119.736C88.7794 119.896 88.6274 120.016 88.4034 120.096C88.1954 120.192 87.9634 120.24 87.7074 120.24ZM99.8293 120.192C98.7413 120.192 97.7813 119.992 96.9493 119.592C96.1173 119.192 95.4613 118.64 94.9813 117.936C94.5013 117.216 94.2613 116.376 94.2613 115.416V113.136C94.2613 112.288 94.4853 111.512 94.9333 110.808C95.3973 110.104 96.0053 109.544 96.7573 109.128C97.5093 108.696 98.3413 108.48 99.2533 108.48C100.117 108.48 100.909 108.672 101.629 109.056C102.349 109.424 102.925 109.944 103.357 110.616C103.805 111.288 104.029 112.056 104.029 112.92C104.029 113.592 103.925 114.072 103.717 114.36C103.509 114.648 103.237 114.824 102.901 114.888C102.565 114.952 102.213 114.984 101.845 114.984H96.7813V115.536C96.7813 116.336 97.0693 116.976 97.6453 117.456C98.2373 117.92 98.9893 118.152 99.9013 118.152C100.461 118.152 100.917 118.072 101.269 117.912C101.621 117.752 101.917 117.6 102.157 117.456C102.397 117.312 102.621 117.24 102.829 117.24C103.037 117.24 103.213 117.304 103.357 117.432C103.501 117.56 103.613 117.712 103.693 117.888C103.773 118.064 103.813 118.224 103.813 118.368C103.813 118.608 103.645 118.872 103.309 119.16C102.989 119.448 102.533 119.696 101.941 119.904C101.349 120.096 100.645 120.192 99.8293 120.192ZM96.7813 113.424H100.765C101.117 113.424 101.349 113.376 101.461 113.28C101.589 113.184 101.653 112.992 101.653 112.704C101.653 112.288 101.549 111.904 101.341 111.552C101.133 111.184 100.845 110.904 100.477 110.712C100.109 110.504 99.6933 110.4 99.2293 110.4C98.7813 110.4 98.3733 110.496 98.0053 110.688C97.6373 110.88 97.3413 111.144 97.1173 111.48C96.8933 111.816 96.7813 112.208 96.7813 112.656V113.424ZM107.548 120C107.196 120 106.9 119.912 106.66 119.736C106.436 119.56 106.324 119.368 106.324 119.16V109.44C106.324 109.2 106.436 109.008 106.66 108.864C106.9 108.704 107.196 108.624 107.548 108.624C107.868 108.624 108.14 108.704 108.364 108.864C108.588 109.008 108.7 109.2 108.7 109.44V110.496C108.876 110.16 109.108 109.84 109.396 109.536C109.7 109.232 110.052 108.984 110.452 108.792C110.852 108.584 111.284 108.48 111.748 108.48H112.516C112.772 108.48 112.996 108.592 113.188 108.816C113.38 109.024 113.476 109.28 113.476 109.584C113.476 109.888 113.38 110.152 113.188 110.376C112.996 110.6 112.772 110.712 112.516 110.712H111.748C111.268 110.712 110.804 110.856 110.356 111.144C109.908 111.432 109.54 111.84 109.252 112.368C108.98 112.88 108.844 113.504 108.844 114.24V119.16C108.844 119.368 108.716 119.56 108.46 119.736C108.22 119.912 107.916 120 107.548 120ZM119.926 120.192C118.838 120.192 117.878 119.992 117.046 119.592C116.214 119.192 115.558 118.64 115.078 117.936C114.598 117.216 114.358 116.376 114.358 115.416V113.136C114.358 112.288 114.582 111.512 115.03 110.808C115.494 110.104 116.102 109.544 116.854 109.128C117.606 108.696 118.438 108.48 119.35 108.48C120.214 108.48 121.006 108.672 121.726 109.056C122.446 109.424 123.022 109.944 123.454 110.616C123.902 111.288 124.126 112.056 124.126 112.92C124.126 113.592 124.022 114.072 123.814 114.36C123.606 114.648 123.334 114.824 122.998 114.888C122.662 114.952 122.31 114.984 121.942 114.984H116.878V115.536C116.878 116.336 117.166 116.976 117.742 117.456C118.334 117.92 119.086 118.152 119.998 118.152C120.558 118.152 121.014 118.072 121.366 117.912C121.718 117.752 122.014 117.6 122.254 117.456C122.494 117.312 122.718 117.24 122.926 117.24C123.134 117.24 123.31 117.304 123.454 117.432C123.598 117.56 123.71 117.712 123.79 117.888C123.87 118.064 123.91 118.224 123.91 118.368C123.91 118.608 123.742 118.872 123.406 119.16C123.086 119.448 122.63 119.696 122.038 119.904C121.446 120.096 120.742 120.192 119.926 120.192ZM116.878 113.424H120.862C121.214 113.424 121.446 113.376 121.558 113.28C121.686 113.184 121.75 112.992 121.75 112.704C121.75 112.288 121.646 111.904 121.438 111.552C121.23 111.184 120.942 110.904 120.574 110.712C120.206 110.504 119.79 110.4 119.326 110.4C118.878 110.4 118.47 110.496 118.102 110.688C117.734 110.88 117.438 111.144 117.214 111.48C116.99 111.816 116.878 112.208 116.878 112.656V113.424ZM127.669 105.768C127.269 105.768 126.925 105.632 126.637 105.36C126.349 105.088 126.205 104.784 126.205 104.448C126.205 104.08 126.349 103.768 126.637 103.512C126.925 103.256 127.269 103.128 127.669 103.128C128.069 103.128 128.405 103.256 128.677 103.512C128.965 103.768 129.109 104.08 129.109 104.448C129.109 104.784 128.965 105.088 128.677 105.36C128.405 105.632 128.069 105.768 127.669 105.768ZM127.669 120C127.301 120 126.997 119.912 126.757 119.736C126.533 119.56 126.421 119.368 126.421 119.16V109.44C126.421 109.2 126.533 109.008 126.757 108.864C126.997 108.704 127.301 108.624 127.669 108.624C128.021 108.624 128.317 108.704 128.557 108.864C128.813 109.008 128.941 109.2 128.941 109.44V119.16C128.941 119.368 128.813 119.56 128.557 119.736C128.317 119.912 128.021 120 127.669 120ZM136.09 125.4C135.162 125.4 134.306 125.264 133.522 124.992C132.738 124.736 132.114 124.36 131.65 123.864C131.186 123.368 130.954 122.776 130.954 122.088C130.954 121.448 131.138 120.912 131.506 120.48C131.874 120.064 132.306 119.744 132.802 119.52C132.482 119.376 132.218 119.184 132.01 118.944C131.802 118.704 131.698 118.368 131.698 117.936C131.698 117.488 131.81 117.128 132.034 116.856C132.258 116.584 132.546 116.336 132.898 116.112C132.45 115.76 132.098 115.328 131.842 114.816C131.602 114.288 131.482 113.712 131.482 113.088V112.416C131.482 111.648 131.666 110.968 132.034 110.376C132.402 109.784 132.922 109.32 133.594 108.984C134.282 108.648 135.066 108.48 135.946 108.48C136.49 108.48 136.994 108.552 137.458 108.696C137.938 108.84 138.362 109.04 138.73 109.296C138.986 108.704 139.242 108.288 139.498 108.048C139.77 107.808 140.026 107.688 140.266 107.688C140.602 107.688 140.858 107.784 141.034 107.976C141.21 108.168 141.298 108.36 141.298 108.552C141.298 108.68 141.258 108.8 141.178 108.912C141.114 109.008 141.018 109.088 140.89 109.152C140.73 109.232 140.538 109.344 140.314 109.488C140.106 109.616 139.898 109.824 139.69 110.112C139.962 110.416 140.162 110.768 140.29 111.168C140.418 111.568 140.482 111.984 140.482 112.416V113.088C140.482 113.84 140.29 114.52 139.906 115.128C139.522 115.736 138.986 116.216 138.298 116.568C137.61 116.904 136.826 117.072 135.946 117.072C135.322 117.072 134.77 116.976 134.29 116.784C134.162 116.864 134.05 116.96 133.954 117.072C133.874 117.168 133.834 117.296 133.834 117.456C133.834 117.744 134.01 117.952 134.362 118.08C134.714 118.208 135.162 118.304 135.706 118.368C136.266 118.432 136.858 118.512 137.482 118.608C138.106 118.704 138.69 118.864 139.234 119.088C139.794 119.296 140.25 119.608 140.602 120.024C140.954 120.456 141.13 121.04 141.13 121.776C141.13 122.608 140.898 123.288 140.434 123.816C139.97 124.36 139.354 124.76 138.586 125.016C137.834 125.272 137.002 125.4 136.09 125.4ZM136.042 123.72C136.826 123.72 137.458 123.544 137.938 123.192C138.434 122.856 138.682 122.408 138.682 121.848C138.682 121.448 138.562 121.136 138.322 120.912C138.082 120.688 137.77 120.52 137.386 120.408C137.002 120.296 136.594 120.216 136.162 120.168C135.746 120.12 135.346 120.072 134.962 120.024C134.514 120.184 134.13 120.408 133.81 120.696C133.506 121 133.354 121.376 133.354 121.824C133.354 122.416 133.602 122.88 134.098 123.216C134.61 123.552 135.258 123.72 136.042 123.72ZM135.994 115.464C136.634 115.464 137.13 115.24 137.482 114.792C137.85 114.344 138.034 113.776 138.034 113.088V112.416C138.034 111.76 137.85 111.208 137.482 110.76C137.13 110.312 136.626 110.088 135.97 110.088C135.314 110.088 134.81 110.312 134.458 110.76C134.106 111.208 133.93 111.76 133.93 112.416V113.064C133.93 113.736 134.106 114.304 134.458 114.768C134.81 115.232 135.322 115.464 135.994 115.464ZM144.438 120C144.07 120 143.766 119.912 143.526 119.736C143.302 119.56 143.19 119.368 143.19 119.16V109.44C143.19 109.2 143.302 109.008 143.526 108.864C143.766 108.704 144.07 108.624 144.438 108.624C144.742 108.624 145.006 108.704 145.23 108.864C145.454 109.008 145.566 109.2 145.566 109.44V110.304C145.806 109.84 146.198 109.424 146.742 109.056C147.302 108.672 147.982 108.48 148.782 108.48C149.534 108.48 150.222 108.696 150.846 109.128C151.486 109.544 151.998 110.112 152.382 110.832C152.766 111.536 152.958 112.328 152.958 113.208V119.16C152.958 119.432 152.822 119.64 152.55 119.784C152.294 119.928 152.006 120 151.686 120C151.398 120 151.118 119.928 150.846 119.784C150.574 119.64 150.438 119.432 150.438 119.16V113.208C150.438 112.792 150.326 112.392 150.102 112.008C149.894 111.624 149.606 111.312 149.238 111.072C148.87 110.832 148.462 110.712 148.014 110.712C147.63 110.712 147.262 110.816 146.91 111.024C146.558 111.216 146.27 111.496 146.046 111.864C145.822 112.232 145.71 112.68 145.71 113.208V119.16C145.71 119.368 145.582 119.56 145.326 119.736C145.086 119.912 144.79 120 144.438 120Z" fill="white"/>
</svg>
