<svg width="706" height="77" viewBox="0 0 706 77" fill="none" xmlns="http://www.w3.org/2000/svg">
<path d="M13.6 75H0.4V23.5H13.6V75ZM0.3 17.9V10.5C0.3 8.63333 0.933333 7.06666 2.2 5.8C3.53333 4.53333 5.13333 3.9 7 3.9C8.8 3.9 10.3333 4.53333 11.6 5.8C12.9333 7.06666 13.6 8.63333 13.6 10.5V17.9H0.3ZM48.7789 64.1C50.5122 64.1 52.1456 63.7667 53.6789 63.1C55.2122 62.3667 56.5456 61.3667 57.6789 60.1C58.8789 58.7667 59.8122 57.2 60.4789 55.4C61.1456 53.6 61.4789 51.6 61.4789 49.4C61.4789 47.2 61.1456 45.1667 60.4789 43.3C59.8122 41.4333 58.8789 39.8333 57.6789 38.5C56.5456 37.1667 55.2122 36.1333 53.6789 35.4C52.1456 34.6667 50.5122 34.3 48.7789 34.3C47.0456 34.3 45.3789 34.6667 43.7789 35.4C42.2456 36.1333 40.9122 37.1667 39.7789 38.5C38.6456 39.8333 37.7456 41.4333 37.0789 43.3C36.4122 45.1667 36.0789 47.2 36.0789 49.4C36.0789 51.6 36.4122 53.6 37.0789 55.4C37.7456 57.2 38.6456 58.7667 39.7789 60.1C40.9122 61.3667 42.2456 62.3667 43.7789 63.1C45.3789 63.7667 47.0456 64.1 48.7789 64.1ZM48.7789 22.2C52.3789 22.2 55.7456 22.9 58.8789 24.3C62.0122 25.6333 64.7456 27.5333 67.0789 30C69.4789 32.4 71.3456 35.2667 72.6789 38.6C74.0789 41.8667 74.7789 45.4333 74.7789 49.3C74.7789 53.1667 74.0789 56.7333 72.6789 60C71.3456 63.2667 69.4789 66.1 67.0789 68.5C64.7456 70.9 62.0122 72.8 58.8789 74.2C55.7456 75.5333 52.3789 76.2 48.7789 76.2C45.1789 76.2 41.8122 75.5333 38.6789 74.2C35.5456 72.8 32.8122 70.9 30.4789 68.5C28.1456 66.1 26.2789 63.2667 24.8789 60C23.5456 56.7333 22.8789 53.1667 22.8789 49.3C22.8789 45.4333 23.5456 41.8667 24.8789 38.6C26.2789 35.2667 28.1456 32.4 30.4789 30C32.8122 27.5333 35.5456 25.6333 38.6789 24.3C41.8122 22.9 45.1789 22.2 48.7789 22.2ZM83.3891 45.2C83.3891 41.9333 83.9224 38.9 84.9891 36.1C86.1224 33.3 87.6891 30.8667 89.6891 28.8C91.7557 26.7333 94.1891 25.1333 96.9891 24C99.8557 22.8 103.056 22.2 106.589 22.2C110.189 22.2 113.389 22.7667 116.189 23.9C119.056 25.0333 121.456 26.6333 123.389 28.7C125.389 30.7 126.889 33.1 127.889 35.9C128.956 38.7 129.489 41.8 129.489 45.2V75H116.289V44.9C116.289 44.1667 116.189 43.2667 115.989 42.2C115.789 41.0667 115.356 39.9667 114.689 38.9C114.022 37.8333 113.056 36.9333 111.789 36.2C110.522 35.4667 108.789 35.1 106.589 35.1C103.656 35.1 101.256 36 99.3891 37.8C97.5224 39.6 96.5891 41.9667 96.5891 44.9V75H83.3891V45.2ZM198.675 34.9C194.475 34.1667 191.075 34.8 188.475 36.8C185.942 38.7333 184.675 41.5333 184.675 45.2V75H171.475V45.2C171.475 41.5333 172.075 38.2 173.275 35.2C174.542 32.2 176.342 29.6667 178.675 27.6C181.008 25.5333 183.842 24.0333 187.175 23.1C190.575 22.1667 194.408 21.9667 198.675 22.5V34.9ZM239.75 38.4C238.55 36.9333 237.083 35.8 235.35 35C233.617 34.2 231.683 33.8 229.55 33.8C227.617 33.8 225.817 34.1667 224.15 34.9C222.483 35.6333 221.017 36.6667 219.75 38C218.55 39.2667 217.55 40.8 216.75 42.6C216.017 44.4 215.617 46.4 215.55 48.6L239.75 38.4ZM254.55 58.6C253.017 63.8667 250.083 68.1333 245.75 71.4C241.483 74.6 236.117 76.2 229.65 76.2C225.983 76.2 222.55 75.5 219.35 74.1C216.15 72.7 213.35 70.8 210.95 68.4C208.55 65.9333 206.65 63.0667 205.25 59.8C203.917 56.5333 203.25 53.0333 203.25 49.3C203.25 45.5667 203.917 42.0667 205.25 38.8C206.65 35.4667 208.55 32.6 210.95 30.2C213.35 27.7333 216.15 25.8 219.35 24.4C222.55 22.9333 225.983 22.2 229.65 22.2C232.717 22.2 235.65 22.7 238.45 23.7C241.25 24.6333 243.75 26.0333 245.95 27.9C248.217 29.7 250.117 31.9333 251.65 34.6C253.25 37.2667 254.35 40.3333 254.95 43.8L218.55 59.1C219.883 60.8333 221.483 62.2 223.35 63.2C225.217 64.1333 227.283 64.6 229.55 64.6C231.683 64.6 233.75 64.1333 235.75 63.2C237.75 62.2 239.317 60.6667 240.45 58.6H254.55ZM300.86 49.4C300.86 47.3333 300.493 45.4 299.76 43.6C299.093 41.8 298.16 40.2333 296.96 38.9C295.76 37.5667 294.36 36.5333 292.76 35.8C291.16 35 289.46 34.6 287.66 34.6C285.86 34.6 284.16 34.9667 282.56 35.7C280.96 36.4333 279.56 37.4667 278.36 38.8C277.16 40.1333 276.193 41.7 275.46 43.5C274.793 45.3 274.46 47.2667 274.46 49.4C274.46 51.4667 274.793 53.4 275.46 55.2C276.193 56.9333 277.16 58.4667 278.36 59.8C279.56 61.0667 280.96 62.0667 282.56 62.8C284.16 63.5333 285.86 63.9 287.66 63.9C289.46 63.9 291.16 63.5333 292.76 62.8C294.36 62 295.76 60.9667 296.96 59.7C298.16 58.3667 299.093 56.8333 299.76 55.1C300.493 53.3 300.86 51.4 300.86 49.4ZM314.06 75H301.56V69.6C299.627 71.7333 297.293 73.3667 294.56 74.5C291.893 75.5667 288.993 76.1 285.86 76.1C282.46 76.1 279.26 75.4 276.26 74C273.26 72.6 270.627 70.7 268.36 68.3C266.16 65.8333 264.393 63 263.06 59.8C261.793 56.5333 261.16 53.0333 261.16 49.3C261.16 45.5667 261.793 42.0667 263.06 38.8C264.393 35.4667 266.227 32.6 268.56 30.2C270.893 27.7333 273.66 25.8 276.86 24.4C280.127 22.9333 283.727 22.2 287.66 22.2C291.527 22.2 295.06 22.9333 298.26 24.4C301.527 25.8 304.327 27.7333 306.66 30.2C308.993 32.6 310.793 35.4667 312.06 38.8C313.393 42.0667 314.06 45.5667 314.06 49.3V75ZM374.184 57.6C372.65 63.4667 369.684 68.0333 365.284 71.3C360.884 74.5667 355.55 76.2 349.284 76.2C345.417 76.2 341.85 75.5 338.584 74.1C335.317 72.7 332.517 70.8 330.184 68.4C327.85 65.9333 326.017 63.0667 324.684 59.8C323.35 56.5333 322.684 53.0333 322.684 49.3C322.684 45.5667 323.35 42.0667 324.684 38.8C326.017 35.4667 327.85 32.6 330.184 30.2C332.517 27.7333 335.317 25.8 338.584 24.4C341.85 22.9333 345.417 22.2 349.284 22.2C355.55 22.2 360.85 23.8333 365.184 27.1C369.584 30.3667 372.55 34.9333 374.084 40.8H359.984C359.05 39.0667 357.617 37.5667 355.684 36.3C353.817 34.9667 351.684 34.3 349.284 34.3C347.484 34.3 345.784 34.7 344.184 35.5C342.584 36.3 341.184 37.4 339.984 38.8C338.784 40.1333 337.817 41.7333 337.084 43.6C336.417 45.4 336.084 47.3333 336.084 49.4C336.084 51.4 336.417 53.3 337.084 55.1C337.817 56.9 338.784 58.5 339.984 59.9C341.184 61.2333 342.584 62.3 344.184 63.1C345.784 63.8333 347.484 64.2 349.284 64.2C351.75 64.2 353.95 63.5667 355.884 62.3C357.817 60.9667 359.217 59.4 360.084 57.6H374.184ZM405.213 74.9C401.413 75.3 398.079 75.0667 395.213 74.2C392.346 73.3333 389.946 71.9333 388.013 70C386.079 68.0667 384.613 65.7 383.613 62.9C382.613 60.0333 382.113 56.8333 382.113 53.3V10.4H395.313V23.5H404.613V35.2H395.313V53.4C395.313 57 396.113 59.5333 397.713 61C399.379 62.4667 401.879 63.1 405.213 62.9V74.9ZM467.81 74.9C464.01 75.3 460.677 75.0667 457.81 74.2C454.943 73.3333 452.543 71.9333 450.61 70C448.677 68.0667 447.21 65.7 446.21 62.9C445.21 60.0333 444.71 56.8333 444.71 53.3V10.4H457.91V23.5H467.21V35.2H457.91V53.4C457.91 57 458.71 59.5333 460.31 61C461.977 62.4667 464.477 63.1 467.81 62.9V74.9ZM490.846 75H477.646V23.5H490.846V75ZM477.546 17.9V10.5C477.546 8.63333 478.179 7.06666 479.446 5.8C480.779 4.53333 482.379 3.9 484.246 3.9C486.046 3.9 487.579 4.53333 488.846 5.8C490.179 7.06666 490.846 8.63333 490.846 10.5V17.9H477.546ZM502.725 45.2C502.725 41.9333 503.258 38.9 504.325 36.1C505.458 33.3 507.025 30.8667 509.025 28.8C511.092 26.7333 513.525 25.1333 516.325 24C519.192 22.8 522.392 22.2 525.925 22.2C529.525 22.2 532.725 22.7667 535.525 23.9C538.392 25.0333 540.792 26.6333 542.725 28.7C544.725 30.7 546.225 33.1 547.225 35.9C548.292 38.7 548.825 41.8 548.825 45.2V75H535.625V44.9C535.625 44.1667 535.525 43.2667 535.325 42.2C535.125 41.0667 534.692 39.9667 534.025 38.9C533.358 37.8333 532.392 36.9333 531.125 36.2C529.858 35.4667 528.125 35.1 525.925 35.1C522.992 35.1 520.592 36 518.725 37.8C516.858 39.6 515.925 41.9667 515.925 44.9V75H502.725V45.2ZM597.149 49.4C597.149 47.3333 596.783 45.4 596.049 43.6C595.383 41.8 594.449 40.2333 593.249 38.9C592.049 37.5667 590.649 36.5333 589.049 35.8C587.449 35 585.749 34.6 583.949 34.6C582.149 34.6 580.449 34.9667 578.849 35.7C577.249 36.4333 575.849 37.4667 574.649 38.8C573.449 40.1333 572.483 41.7 571.749 43.5C571.083 45.3 570.749 47.2667 570.749 49.4C570.749 51.4667 571.083 53.4 571.749 55.2C572.483 56.9333 573.449 58.4667 574.649 59.8C575.849 61.0667 577.249 62.0667 578.849 62.8C580.449 63.5333 582.149 63.9 583.949 63.9C585.749 63.9 587.449 63.5333 589.049 62.8C590.649 62 592.049 60.9667 593.249 59.7C594.449 58.3667 595.383 56.8333 596.049 55.1C596.783 53.3 597.149 51.4 597.149 49.4ZM610.349 49.3C610.349 53.0333 609.683 56.5333 608.349 59.8C607.083 63.0667 605.283 65.9333 602.949 68.4C600.616 70.8 597.816 72.7 594.549 74.1C591.349 75.5 587.816 76.2 583.949 76.2C580.016 76.2 576.416 75.5 573.149 74.1C569.949 72.7 567.183 70.8 564.849 68.4C562.516 65.9333 560.683 63.0667 559.349 59.8C558.083 56.5333 557.449 53.0333 557.449 49.3C557.449 45.6333 558.083 42.1667 559.349 38.9C560.683 35.6333 562.449 32.7667 564.649 30.3C566.916 27.8333 569.516 25.9 572.449 24.5C575.449 23.1 578.649 22.4 582.049 22.4C588.183 22.4 593.216 24.4 597.149 28.4V0.599998H610.349V49.3ZM654.496 38.4C653.296 36.9333 651.829 35.8 650.096 35C648.363 34.2 646.429 33.8 644.296 33.8C642.363 33.8 640.563 34.1667 638.896 34.9C637.229 35.6333 635.763 36.6667 634.496 38C633.296 39.2667 632.296 40.8 631.496 42.6C630.763 44.4 630.363 46.4 630.296 48.6L654.496 38.4ZM669.296 58.6C667.763 63.8667 664.829 68.1333 660.496 71.4C656.229 74.6 650.863 76.2 644.396 76.2C640.729 76.2 637.296 75.5 634.096 74.1C630.896 72.7 628.096 70.8 625.696 68.4C623.296 65.9333 621.396 63.0667 619.996 59.8C618.663 56.5333 617.996 53.0333 617.996 49.3C617.996 45.5667 618.663 42.0667 619.996 38.8C621.396 35.4667 623.296 32.6 625.696 30.2C628.096 27.7333 630.896 25.8 634.096 24.4C637.296 22.9333 640.729 22.2 644.396 22.2C647.463 22.2 650.396 22.7 653.196 23.7C655.996 24.6333 658.496 26.0333 660.696 27.9C662.963 29.7 664.863 31.9333 666.396 34.6C667.996 37.2667 669.096 40.3333 669.696 43.8L633.296 59.1C634.629 60.8333 636.229 62.2 638.096 63.2C639.963 64.1333 642.029 64.6 644.296 64.6C646.429 64.6 648.496 64.1333 650.496 63.2C652.496 62.2 654.063 60.6667 655.196 58.6H669.296ZM705.706 34.9C701.506 34.1667 698.106 34.8 695.506 36.8C692.973 38.7333 691.706 41.5333 691.706 45.2V75H678.506V45.2C678.506 41.5333 679.106 38.2 680.306 35.2C681.573 32.2 683.373 29.6667 685.706 27.6C688.04 25.5333 690.873 24.0333 694.206 23.1C697.606 22.1667 701.44 21.9667 705.706 22.5V34.9Z" fill="#f95266"/>
<defs>
<linearGradient id="paint0_linear_104_3" x1="708" y1="0" x2="684.679" y2="180.995" gradientUnits="userSpaceOnUse">
<stop stopColor="#FE7654"/>
<stop offset="1" stopColor="#FC267C"/>
</linearGradient>
</defs>
</svg>
