<svg width="813" height="642" viewBox="0 0 813 642" fill="none" xmlns="http://www.w3.org/2000/svg">
<path d="M19.9 617H6.7V547.6H19.9V617ZM55.3648 606.1C57.0982 606.1 58.7315 605.767 60.2648 605.1C61.7982 604.367 63.1315 603.367 64.2648 602.1C65.4648 600.767 66.3982 599.2 67.0648 597.4C67.7315 595.6 68.0648 593.6 68.0648 591.4C68.0648 589.2 67.7315 587.167 67.0648 585.3C66.3982 583.433 65.4648 581.833 64.2648 580.5C63.1315 579.167 61.7982 578.133 60.2648 577.4C58.7315 576.667 57.0982 576.3 55.3648 576.3C53.6315 576.3 51.9648 576.667 50.3648 577.4C48.8315 578.133 47.4982 579.167 46.3648 580.5C45.2315 581.833 44.3315 583.433 43.6648 585.3C42.9982 587.167 42.6648 589.2 42.6648 591.4C42.6648 593.6 42.9982 595.6 43.6648 597.4C44.3315 599.2 45.2315 600.767 46.3648 602.1C47.4982 603.367 48.8315 604.367 50.3648 605.1C51.9648 605.767 53.6315 606.1 55.3648 606.1ZM55.3648 564.2C58.9648 564.2 62.3315 564.9 65.4648 566.3C68.5982 567.633 71.3315 569.533 73.6648 572C76.0648 574.4 77.9315 577.267 79.2648 580.6C80.6648 583.867 81.3648 587.433 81.3648 591.3C81.3648 595.167 80.6648 598.733 79.2648 602C77.9315 605.267 76.0648 608.1 73.6648 610.5C71.3315 612.9 68.5982 614.8 65.4648 616.2C62.3315 617.533 58.9648 618.2 55.3648 618.2C51.7648 618.2 48.3982 617.533 45.2648 616.2C42.1315 614.8 39.3982 612.9 37.0648 610.5C34.7315 608.1 32.8648 605.267 31.4648 602C30.1315 598.733 29.4648 595.167 29.4648 591.3C29.4648 587.433 30.1315 583.867 31.4648 580.6C32.8648 577.267 34.7315 574.4 37.0648 572C39.3982 569.533 42.1315 567.633 45.2648 566.3C48.3982 564.9 51.7648 564.2 55.3648 564.2ZM89.975 587.2C89.975 583.933 90.5083 580.9 91.575 578.1C92.7083 575.3 94.275 572.867 96.275 570.8C98.3417 568.733 100.775 567.133 103.575 566C106.442 564.8 109.642 564.2 113.175 564.2C116.775 564.2 119.975 564.767 122.775 565.9C125.642 567.033 128.042 568.633 129.975 570.7C131.975 572.7 133.475 575.1 134.475 577.9C135.542 580.7 136.075 583.8 136.075 587.2V617H122.875V586.9C122.875 586.167 122.775 585.267 122.575 584.2C122.375 583.067 121.942 581.967 121.275 580.9C120.608 579.833 119.642 578.933 118.375 578.2C117.108 577.467 115.375 577.1 113.175 577.1C110.242 577.1 107.842 578 105.975 579.8C104.108 581.6 103.175 583.967 103.175 586.9V617H89.975V587.2ZM203.361 579.9C206.894 579.9 209.594 578.933 211.461 577C213.328 575.067 214.261 572.467 214.261 569.2C214.261 566.2 213.228 563.7 211.161 561.7C209.161 559.633 206.528 558.6 203.261 558.6C201.394 558.6 199.761 558.933 198.361 559.6C196.961 560.2 195.761 561.067 194.761 562.2C193.828 563.267 193.128 564.533 192.661 566C192.194 567.4 191.961 568.9 191.961 570.5V579.9H203.361ZM226.261 617H213.061V596.6C213.061 595.267 212.661 594.167 211.861 593.3C211.061 592.433 209.928 592 208.461 592H191.961V617H178.661V570.5C178.661 567.167 179.228 564.033 180.361 561.1C181.494 558.1 183.128 555.467 185.261 553.2C187.528 550.867 190.161 549.067 193.161 547.8C196.228 546.533 199.528 545.9 203.061 545.9C206.528 545.9 209.728 546.5 212.661 547.7C215.661 548.9 218.261 550.533 220.461 552.6C222.661 554.6 224.394 556.967 225.661 559.7C226.928 562.367 227.561 565.233 227.561 568.3C227.561 571.967 226.894 575.167 225.561 577.9C224.294 580.567 222.561 582.8 220.361 584.6C222.228 585.733 223.661 587.233 224.661 589.1C225.728 590.967 226.261 593.267 226.261 596V617ZM272.313 580.4C271.113 578.933 269.646 577.8 267.913 577C266.179 576.2 264.246 575.8 262.113 575.8C260.179 575.8 258.379 576.167 256.713 576.9C255.046 577.633 253.579 578.667 252.313 580C251.113 581.267 250.113 582.8 249.313 584.6C248.579 586.4 248.179 588.4 248.113 590.6L272.313 580.4ZM287.113 600.6C285.579 605.867 282.646 610.133 278.313 613.4C274.046 616.6 268.679 618.2 262.212 618.2C258.546 618.2 255.113 617.5 251.913 616.1C248.713 614.7 245.913 612.8 243.513 610.4C241.113 607.933 239.213 605.067 237.813 601.8C236.479 598.533 235.813 595.033 235.813 591.3C235.813 587.567 236.479 584.067 237.813 580.8C239.213 577.467 241.113 574.6 243.513 572.2C245.913 569.733 248.713 567.8 251.913 566.4C255.113 564.933 258.546 564.2 262.212 564.2C265.279 564.2 268.213 564.7 271.013 565.7C273.813 566.633 276.313 568.033 278.513 569.9C280.779 571.7 282.679 573.933 284.212 576.6C285.813 579.267 286.913 582.333 287.513 585.8L251.113 601.1C252.446 602.833 254.046 604.2 255.913 605.2C257.779 606.133 259.846 606.6 262.113 606.6C264.246 606.6 266.313 606.133 268.313 605.2C270.313 604.2 271.879 602.667 273.013 600.6H287.113ZM333.423 591.4C333.423 589.333 333.056 587.4 332.323 585.6C331.656 583.8 330.723 582.233 329.523 580.9C328.323 579.567 326.923 578.533 325.323 577.8C323.723 577 322.023 576.6 320.223 576.6C318.423 576.6 316.723 576.967 315.123 577.7C313.523 578.433 312.123 579.467 310.923 580.8C309.723 582.133 308.756 583.7 308.023 585.5C307.356 587.3 307.023 589.267 307.023 591.4C307.023 593.467 307.356 595.4 308.023 597.2C308.756 598.933 309.723 600.467 310.923 601.8C312.123 603.067 313.523 604.067 315.123 604.8C316.723 605.533 318.423 605.9 320.223 605.9C322.023 605.9 323.723 605.533 325.323 604.8C326.923 604 328.323 602.967 329.523 601.7C330.723 600.367 331.656 598.833 332.323 597.1C333.056 595.3 333.423 593.4 333.423 591.4ZM346.623 617H334.123V611.6C332.189 613.733 329.856 615.367 327.123 616.5C324.456 617.567 321.556 618.1 318.423 618.1C315.023 618.1 311.823 617.4 308.823 616C305.823 614.6 303.189 612.7 300.923 610.3C298.723 607.833 296.956 605 295.623 601.8C294.356 598.533 293.723 595.033 293.723 591.3C293.723 587.567 294.356 584.067 295.623 580.8C296.956 577.467 298.789 574.6 301.123 572.2C303.456 569.733 306.223 567.8 309.423 566.4C312.689 564.933 316.289 564.2 320.223 564.2C324.089 564.2 327.623 564.933 330.823 566.4C334.089 567.8 336.889 569.733 339.223 572.2C341.556 574.6 343.356 577.467 344.623 580.8C345.956 584.067 346.623 587.567 346.623 591.3V617ZM406.746 599.6C405.213 605.467 402.246 610.033 397.846 613.3C393.446 616.567 388.113 618.2 381.846 618.2C377.979 618.2 374.413 617.5 371.146 616.1C367.879 614.7 365.079 612.8 362.746 610.4C360.413 607.933 358.579 605.067 357.246 601.8C355.913 598.533 355.246 595.033 355.246 591.3C355.246 587.567 355.913 584.067 357.246 580.8C358.579 577.467 360.413 574.6 362.746 572.2C365.079 569.733 367.879 567.8 371.146 566.4C374.413 564.933 377.979 564.2 381.846 564.2C388.113 564.2 393.413 565.833 397.746 569.1C402.146 572.367 405.113 576.933 406.646 582.8H392.546C391.613 581.067 390.179 579.567 388.246 578.3C386.379 576.967 384.246 576.3 381.846 576.3C380.046 576.3 378.346 576.7 376.746 577.5C375.146 578.3 373.746 579.4 372.546 580.8C371.346 582.133 370.379 583.733 369.646 585.6C368.979 587.4 368.646 589.333 368.646 591.4C368.646 593.4 368.979 595.3 369.646 597.1C370.379 598.9 371.346 600.5 372.546 601.9C373.746 603.233 375.146 604.3 376.746 605.1C378.346 605.833 380.046 606.2 381.846 606.2C384.313 606.2 386.513 605.567 388.446 604.3C390.379 602.967 391.779 601.4 392.646 599.6H406.746ZM437.775 616.9C433.975 617.3 430.642 617.067 427.775 616.2C424.908 615.333 422.508 613.933 420.575 612C418.642 610.067 417.175 607.7 416.175 604.9C415.175 602.033 414.675 598.833 414.675 595.3V552.4H427.875V565.5H437.175V577.2H427.875V595.4C427.875 599 428.675 601.533 430.275 603C431.942 604.467 434.442 605.1 437.775 604.9V616.9ZM505.373 559.9V617H492.173V559.9H473.573V547.6H523.973V559.9H505.373ZM545.186 617H531.986V565.5H545.186V617ZM531.886 559.9V552.5C531.886 550.633 532.519 549.067 533.786 547.8C535.119 546.533 536.719 545.9 538.586 545.9C540.386 545.9 541.919 546.533 543.186 547.8C544.519 549.067 545.186 550.633 545.186 552.5V559.9H531.886ZM557.065 587.2C557.065 583.933 557.598 580.9 558.665 578.1C559.798 575.3 561.365 572.867 563.365 570.8C565.432 568.733 567.865 567.133 570.665 566C573.532 564.8 576.732 564.2 580.265 564.2C583.865 564.2 587.065 564.767 589.865 565.9C592.732 567.033 595.132 568.633 597.065 570.7C599.065 572.7 600.565 575.1 601.565 577.9C602.632 580.7 603.165 583.8 603.165 587.2V617H589.965V586.9C589.965 586.167 589.865 585.267 589.665 584.2C589.465 583.067 589.032 581.967 588.365 580.9C587.698 579.833 586.732 578.933 585.465 578.2C584.198 577.467 582.465 577.1 580.265 577.1C577.332 577.1 574.932 578 573.065 579.8C571.198 581.6 570.265 583.967 570.265 586.9V617H557.065V587.2ZM651.489 591.4C651.489 589.333 651.122 587.4 650.389 585.6C649.722 583.8 648.789 582.233 647.589 580.9C646.389 579.567 644.989 578.533 643.389 577.8C641.789 577 640.089 576.6 638.289 576.6C636.489 576.6 634.789 576.967 633.189 577.7C631.589 578.433 630.189 579.467 628.989 580.8C627.789 582.133 626.822 583.7 626.089 585.5C625.422 587.3 625.089 589.267 625.089 591.4C625.089 593.467 625.422 595.4 626.089 597.2C626.822 598.933 627.789 600.467 628.989 601.8C630.189 603.067 631.589 604.067 633.189 604.8C634.789 605.533 636.489 605.9 638.289 605.9C640.089 605.9 641.789 605.533 643.389 604.8C644.989 604 646.389 602.967 647.589 601.7C648.789 600.367 649.722 598.833 650.389 597.1C651.122 595.3 651.489 593.4 651.489 591.4ZM664.689 591.3C664.689 595.033 664.022 598.533 662.689 601.8C661.422 605.067 659.622 607.933 657.289 610.4C654.956 612.8 652.156 614.7 648.889 616.1C645.689 617.5 642.156 618.2 638.289 618.2C634.356 618.2 630.756 617.5 627.489 616.1C624.289 614.7 621.522 612.8 619.189 610.4C616.856 607.933 615.022 605.067 613.689 601.8C612.422 598.533 611.789 595.033 611.789 591.3C611.789 587.633 612.422 584.167 613.689 580.9C615.022 577.633 616.789 574.767 618.989 572.3C621.256 569.833 623.856 567.9 626.789 566.5C629.789 565.1 632.989 564.4 636.389 564.4C642.522 564.4 647.556 566.4 651.489 570.4V542.6H664.689V591.3ZM708.836 580.4C707.636 578.933 706.169 577.8 704.436 577C702.703 576.2 700.769 575.8 698.636 575.8C696.703 575.8 694.903 576.167 693.236 576.9C691.569 577.633 690.103 578.667 688.836 580C687.636 581.267 686.636 582.8 685.836 584.6C685.103 586.4 684.703 588.4 684.636 590.6L708.836 580.4ZM723.636 600.6C722.103 605.867 719.169 610.133 714.836 613.4C710.569 616.6 705.203 618.2 698.736 618.2C695.069 618.2 691.636 617.5 688.436 616.1C685.236 614.7 682.436 612.8 680.036 610.4C677.636 607.933 675.736 605.067 674.336 601.8C673.003 598.533 672.336 595.033 672.336 591.3C672.336 587.567 673.003 584.067 674.336 580.8C675.736 577.467 677.636 574.6 680.036 572.2C682.436 569.733 685.236 567.8 688.436 566.4C691.636 564.933 695.069 564.2 698.736 564.2C701.803 564.2 704.736 564.7 707.536 565.7C710.336 566.633 712.836 568.033 715.036 569.9C717.303 571.7 719.203 573.933 720.736 576.6C722.336 579.267 723.436 582.333 724.036 585.8L687.636 601.1C688.969 602.833 690.569 604.2 692.436 605.2C694.303 606.133 696.369 606.6 698.636 606.6C700.769 606.6 702.836 606.133 704.836 605.2C706.836 604.2 708.403 602.667 709.536 600.6H723.636ZM760.046 576.9C755.846 576.167 752.446 576.8 749.846 578.8C747.313 580.733 746.046 583.533 746.046 587.2V617H732.846V587.2C732.846 583.533 733.446 580.2 734.646 577.2C735.913 574.2 737.713 571.667 740.046 569.6C742.379 567.533 745.213 566.033 748.546 565.1C751.946 564.167 755.779 563.967 760.046 564.5V576.9Z" fill="white"/>
<circle cx="398" cy="243" r="243" fill="white"/>
<path d="M398 363C464.274 363 518 309.274 518 243C518 176.726 464.274 123 398 123C331.726 123 278 176.726 278 243C278 309.274 331.726 363 398 363Z" fill="#ff3e71"/>
<path d="M564.055 123.14C568.84 117.084 571.444 109.587 571.444 101.869C571.444 83.0456 555.955 67.5567 537.132 67.5567C529.414 67.5567 521.917 70.1611 515.861 74.9459C481.166 50.2271 439.599 36.957 397 37.0001C283.757 37.0001 192 128.757 192 242C192 355.243 283.757 447 397 447C510.243 447 602 355.243 602 242C602.043 199.401 588.774 157.834 564.055 123.14ZM530.841 375.841C495.273 411.513 446.919 431.584 396.545 431.584C292.508 431.584 206.898 345.974 206.898 241.937C206.898 137.9 292.508 52.2899 396.545 52.2899C435.743 52.2899 473.994 64.4426 506.005 87.0672C503.862 91.6355 502.752 96.6194 502.752 101.665C502.752 120.495 518.22 136.002 537.05 136.05C542.123 136.038 547.133 134.929 551.735 132.798C559.542 143.859 566.149 155.721 571.447 168.18C601.429 239.06 585.314 321.475 530.841 375.841Z" fill="#ff3e71"/>
<path d="M565 100.714C565 97.3358 560.769 94.1337 554.282 92.1482C555.779 85.5367 555.114 80.2766 552.182 78.5925C551.507 78.1975 550.717 78.0104 549.854 78.0104V80.3286C550.332 80.3286 550.717 80.4222 551.039 80.5988C552.453 81.4097 553.066 84.4972 552.588 88.4682C552.473 89.4454 552.286 90.4745 552.058 91.5245C549.885 91.0008 547.68 90.6222 545.456 90.3913C544.132 88.5645 542.688 86.828 541.132 85.1936C544.521 82.0438 547.702 80.3182 549.864 80.3182V78C547.005 78 543.263 80.0376 539.479 83.572C535.695 80.0583 531.953 78.0416 529.094 78.0416V80.3597C531.246 80.3597 534.437 82.075 537.826 85.204C536.278 86.8328 534.844 88.566 533.533 90.3913C531.305 90.6196 529.096 91.0017 526.922 91.5349C526.683 90.4954 526.506 89.4869 526.381 88.5202C525.892 84.5492 526.495 81.4618 527.899 80.6405C528.211 80.4533 528.616 80.3702 529.094 80.3702V78.052C528.221 78.052 527.431 78.2391 526.745 78.6342C523.824 80.3182 523.169 85.5679 524.676 92.1587C518.21 94.1545 514 97.3459 514 100.714C514 104.092 518.231 107.294 524.718 109.28C523.221 115.891 523.886 121.151 526.818 122.835C527.493 123.23 528.283 123.418 529.157 123.418C532.015 123.418 535.758 121.38 539.542 117.846C543.325 121.359 547.068 123.376 549.927 123.376C550.8 123.376 551.59 123.189 552.276 122.794C555.197 121.11 555.852 115.86 554.345 109.269C560.79 107.284 565 104.082 565 100.714ZM551.465 93.7803C551.08 95.1213 550.602 96.5038 550.062 97.8865C549.636 97.0549 549.189 96.2232 548.7 95.3916C548.222 94.56 547.712 93.7492 547.203 92.959C548.679 93.1773 550.103 93.4476 551.465 93.7803ZM546.704 104.851C545.893 106.255 545.062 107.585 544.199 108.823C542.65 108.958 541.08 109.03 539.5 109.03C537.93 109.03 536.36 108.957 534.822 108.833C533.959 107.596 533.121 106.279 532.306 104.883C531.516 103.521 530.796 102.142 530.144 100.745C530.789 99.3523 531.516 97.9593 532.296 96.5975C533.107 95.1942 533.938 93.8634 534.801 92.6264C536.35 92.4912 537.92 92.4185 539.5 92.4185C541.07 92.4185 542.64 92.4915 544.178 92.616C545.041 93.8532 545.879 95.1699 546.694 96.5664C547.483 97.9281 548.201 99.3107 548.856 100.704C548.201 102.097 547.484 103.49 546.704 104.851ZM550.062 103.5C550.623 104.893 551.101 106.286 551.496 107.637C550.135 107.97 548.7 108.251 547.213 108.469C547.723 107.668 548.232 106.847 548.71 106.005C549.189 105.174 549.636 104.332 550.062 103.5ZM539.521 114.592C538.501 113.533 537.536 112.423 536.631 111.265C537.567 111.307 538.523 111.338 539.49 111.338C540.467 111.338 541.434 111.318 542.38 111.265C541.487 112.425 540.533 113.535 539.521 114.592ZM531.787 108.469C530.31 108.251 528.886 107.98 527.525 107.648C527.909 106.307 528.387 104.924 528.928 103.542C529.354 104.373 529.801 105.205 530.29 106.036C530.778 106.868 531.277 107.679 531.787 108.469ZM539.469 86.8361C540.489 87.8947 541.453 89.005 542.359 90.1627C541.423 90.121 540.467 90.0897 539.5 90.0897C538.523 90.0897 537.556 90.1105 536.61 90.1627C537.502 89.0031 538.457 87.8926 539.469 86.8361ZM531.776 92.959C531.267 93.7595 530.758 94.5808 530.279 95.4228C529.801 96.2544 529.354 97.0861 528.928 97.9177C528.367 96.5247 527.888 95.1317 527.493 93.7803C528.855 93.4581 530.29 93.1773 531.776 92.959ZM522.368 105.974C518.688 104.404 516.308 102.346 516.308 100.714C516.308 99.082 518.688 97.0133 522.368 95.454C523.262 95.0694 524.239 94.7264 525.248 94.404C525.884 96.5646 526.665 98.6798 527.587 100.735C526.675 102.78 525.904 104.885 525.279 107.034C524.25 106.712 523.273 106.359 522.368 105.974ZM527.961 120.829C526.547 120.018 525.934 116.931 526.412 112.96C526.527 111.983 526.714 110.954 526.942 109.904C529.115 110.427 531.32 110.806 533.544 111.037C534.868 112.864 536.312 114.6 537.868 116.234C534.479 119.384 531.298 121.11 529.136 121.11C528.668 121.099 528.273 121.006 527.961 120.829ZM552.619 112.908C553.108 116.879 552.505 119.966 551.101 120.788C550.789 120.975 550.384 121.058 549.906 121.058C547.754 121.058 544.563 119.343 541.174 116.214C542.722 114.585 544.156 112.852 545.467 111.026C547.695 110.798 549.904 110.416 552.078 109.883C552.312 110.881 552.492 111.891 552.619 112.908ZM556.621 105.974C555.727 106.359 554.75 106.702 553.742 107.024C553.106 104.863 552.324 102.748 551.403 100.693C552.314 98.6482 553.085 96.5435 553.71 94.3936C554.74 94.7158 555.717 95.0694 556.632 95.4539C560.311 97.0236 562.692 99.082 562.692 100.714C562.682 102.346 560.301 104.415 556.621 105.974H556.621Z" fill="white"/>
<path d="M403.171 173.175C402.854 173.034 402.506 172.977 402.16 173.009C401.814 173.041 401.483 173.161 401.197 173.357C400.911 173.554 400.68 173.821 400.527 174.132C400.373 174.443 400.302 174.788 400.32 175.135C400.363 175.953 400.396 176.775 400.396 177.396C400.397 187.523 397.434 197.43 391.872 205.894C386.311 214.358 378.393 221.011 369.096 225.031C365.924 220.643 364.982 212.799 364.704 208.179C364.682 207.814 364.562 207.463 364.356 207.161C364.151 206.859 363.867 206.618 363.536 206.464C363.205 206.31 362.838 206.248 362.475 206.285C362.111 206.322 361.765 206.457 361.472 206.675C353.482 212.646 347.153 220.561 343.085 229.667C339.017 238.773 337.346 248.767 338.23 258.701C339.115 268.633 342.525 278.176 348.138 286.421C353.751 294.665 361.379 301.338 370.297 305.804C379.216 310.272 389.13 312.385 399.095 311.942C409.061 311.5 418.747 308.517 427.235 303.278C435.723 298.037 442.73 290.715 447.588 282.006C452.449 273.296 454.999 263.489 455 253.516V252.951C455.001 236.068 450.107 219.546 440.908 205.387C431.709 191.227 418.601 180.038 403.171 173.175Z" fill="white"/>
<defs>
<linearGradient id="paint0_linear_106_16" x1="518" y1="123" x2="278" y2="363" gradientUnits="userSpaceOnUse">
<stop stopColor="#FE7654"/>
<stop offset="1" stopColor="#FC267C"/>
</linearGradient>
<linearGradient id="paint1_linear_106_16" x1="602" y1="37" x2="192" y2="447" gradientUnits="userSpaceOnUse">
<stop stop-color="#FE7654"/>
<stop offset="1" stopColor="#FC267C"/>
</linearGradient>
</defs>
</svg>
