<svg width="486" height="486" viewBox="0 0 486 486" fill="none" xmlns="http://www.w3.org/2000/svg">
<circle cx="243" cy="243" r="243" fill="white"/>
<path d="M241.8 304.599C276.483 304.599 304.599 276.483 304.599 241.8C304.599 207.116 276.483 179 241.8 179C207.116 179 179 207.116 179 241.8C179 276.483 207.116 304.599 241.8 304.599Z" fill="url(#paint0_linear_216_51)"/>
<path d="M409.055 123.14C413.84 117.084 416.444 109.587 416.444 101.869C416.444 83.0456 400.955 67.5567 382.132 67.5567C374.414 67.5567 366.917 70.1611 360.861 74.9459C326.166 50.2271 284.599 36.957 242 37.0001C128.757 37.0001 37 128.757 37 242C37 355.243 128.757 447 242 447C355.243 447 447 355.243 447 242C447.043 199.401 433.774 157.834 409.055 123.14ZM375.841 375.841C340.273 411.513 291.919 431.584 241.545 431.584C137.508 431.584 51.8982 345.974 51.8982 241.937C51.8982 137.9 137.508 52.2899 241.545 52.2899C280.743 52.2899 318.994 64.4426 351.005 87.0672C348.862 91.6355 347.752 96.6194 347.752 101.665C347.752 120.495 363.22 136.002 382.05 136.05C387.123 136.038 392.133 134.929 396.735 132.798C404.542 143.859 411.149 155.721 416.447 168.18C446.429 239.06 430.314 321.475 375.841 375.841Z" fill="url(#paint1_linear_216_51)"/>
<path d="M409.998 242.623C409.998 220.448 382.226 199.43 339.646 186.397C349.472 142.998 345.105 108.471 325.862 97.4162C321.427 94.8231 316.241 93.5946 310.577 93.5946V108.812C313.716 108.812 316.241 109.426 318.357 110.586C327.636 115.908 331.662 136.175 328.524 162.241C327.772 168.655 326.544 175.411 325.043 182.303C310.781 178.865 296.305 176.38 281.713 174.864C273.02 162.873 263.537 151.475 253.326 140.746C275.571 120.07 296.451 108.743 310.645 108.743V93.5266C291.88 93.5266 267.315 106.901 242.476 130.102C217.64 107.037 193.075 93.7998 174.309 93.7998V109.016C188.434 109.016 209.383 120.276 231.628 140.814C221.466 151.506 212.05 162.883 203.446 174.864C188.824 176.363 174.323 178.871 160.047 182.371C158.479 175.547 157.318 168.928 156.499 162.582C153.292 136.516 157.25 116.25 166.462 110.859C168.509 109.63 171.17 109.085 174.309 109.085V93.8677C168.577 93.8677 163.391 95.0963 158.887 97.6893C139.712 108.744 135.414 143.203 145.307 186.465C102.865 199.566 75.2292 220.515 75.2292 242.623C75.2292 264.798 103.001 285.817 145.581 298.85C135.756 342.249 140.123 376.776 159.365 387.831C163.8 390.424 168.987 391.652 174.718 391.652C193.483 391.652 218.049 378.278 242.887 355.077C267.724 378.139 292.289 391.379 311.055 391.379C316.787 391.379 321.973 390.151 326.477 387.558C345.651 376.504 349.95 342.044 340.057 298.782C382.362 285.75 409.998 264.733 409.998 242.623ZM321.154 197.11C318.627 205.913 315.49 214.987 311.942 224.064C309.144 218.605 306.21 213.146 303.003 207.687C299.864 202.228 296.521 196.906 293.177 191.719C302.866 193.152 312.215 194.926 321.154 197.11ZM289.901 269.781C284.579 278.994 279.12 287.728 273.456 295.849C263.289 296.735 252.986 297.213 242.612 297.213C232.308 297.213 222.005 296.734 211.905 295.917C206.242 287.796 200.738 279.153 195.394 269.987C190.208 261.048 185.477 251.995 181.201 242.828C185.431 233.685 190.208 224.541 195.326 215.602C200.648 206.391 206.107 197.656 211.771 189.536C221.938 188.649 232.241 188.171 242.615 188.171C252.919 188.171 263.222 188.65 273.322 189.468C278.985 197.588 284.489 206.232 289.833 215.398C295.018 224.336 299.728 233.412 304.026 242.556C299.728 251.699 295.018 260.843 289.901 269.781ZM311.942 260.911C315.627 270.055 318.766 279.199 321.359 288.069C312.42 290.253 303.003 292.095 293.245 293.528C296.589 288.273 299.933 282.883 303.071 277.355C306.21 271.897 309.144 266.37 311.942 260.911ZM242.75 333.719C236.057 326.771 229.725 319.483 223.781 311.884C229.923 312.157 236.199 312.363 242.546 312.363C248.96 312.363 255.306 312.227 261.515 311.884C255.658 319.495 249.395 326.785 242.75 333.719ZM191.982 293.528C182.292 292.095 172.944 290.321 164.005 288.137C166.53 279.335 169.669 270.259 173.217 261.184C176.014 266.643 178.949 272.102 182.156 277.561C185.363 283.019 188.638 288.342 191.982 293.528ZM242.409 151.528C249.103 158.476 255.435 165.765 261.379 173.363C255.236 173.09 248.96 172.884 242.614 172.884C236.2 172.884 229.854 173.021 223.644 173.363C229.501 165.752 235.765 158.463 242.409 151.528ZM191.914 191.719C188.571 196.973 185.227 202.364 182.088 207.892C178.951 213.35 176.015 218.81 173.217 224.268C169.533 215.125 166.394 205.981 163.801 197.11C172.739 194.995 182.156 193.152 191.914 191.719ZM130.16 277.151C106.004 266.848 90.3779 253.337 90.3779 242.624C90.3779 231.911 106.004 218.332 130.16 208.096C136.028 205.572 142.442 203.32 149.062 201.204C153.236 215.387 158.365 229.271 164.414 242.761C158.431 256.184 153.37 270 149.266 284.112C142.51 281.996 136.097 279.677 130.16 277.151ZM166.871 374.662C157.591 369.339 153.565 349.073 156.704 323.007C157.455 316.593 158.683 309.838 160.184 302.945C174.447 306.383 188.922 308.868 203.515 310.383C212.206 322.375 221.69 333.773 231.9 344.501C209.656 365.177 188.775 376.504 174.581 376.504C171.51 376.436 168.918 375.821 166.871 374.662ZM328.728 322.665C331.936 348.732 327.978 368.998 318.766 374.388C316.718 375.617 314.058 376.163 310.918 376.163C296.793 376.163 275.845 364.903 253.599 344.365C263.761 333.673 273.177 322.296 281.781 310.315C296.403 308.816 310.904 306.308 325.18 302.808C326.712 309.36 327.896 315.988 328.728 322.665ZM354.998 277.151C349.13 279.678 342.715 281.928 336.097 284.043C331.922 269.86 326.793 255.977 320.743 242.487C326.727 229.064 331.789 215.248 335.892 201.136C342.648 203.251 349.062 205.572 355.066 208.096C379.222 218.4 394.848 231.911 394.848 242.623C394.781 253.337 379.155 266.916 355 277.151H354.998Z" fill="url(#paint2_linear_216_51)"/>
<path d="M246.561 195.119C246.344 195.023 246.106 194.984 245.87 195.006C245.634 195.028 245.407 195.11 245.212 195.244C245.016 195.379 244.858 195.561 244.753 195.773C244.648 195.986 244.6 196.222 244.612 196.459C244.641 197.018 244.664 197.58 244.664 198.005C244.664 204.926 242.639 211.696 238.836 217.481C235.033 223.266 229.619 227.813 223.262 230.561C221.094 227.562 220.449 222.2 220.259 219.043C220.244 218.794 220.162 218.554 220.021 218.347C219.881 218.141 219.687 217.976 219.461 217.871C219.234 217.766 218.983 217.724 218.735 217.749C218.486 217.774 218.249 217.866 218.049 218.015C212.586 222.096 208.258 227.506 205.477 233.729C202.695 239.953 201.553 246.783 202.158 253.573C202.762 260.361 205.094 266.883 208.932 272.518C212.77 278.152 217.985 282.713 224.084 285.765C230.182 288.819 236.96 290.263 243.774 289.961C250.589 289.658 257.212 287.619 263.015 284.039C268.819 280.457 273.61 275.453 276.932 269.5C280.255 263.547 281.999 256.845 282 250.029V249.643C282.001 238.104 278.654 226.812 272.364 217.135C266.074 207.457 257.112 199.81 246.561 195.119Z" fill="white"/>
<defs>
<linearGradient id="paint0_linear_216_51" x1="304.599" y1="179" x2="179" y2="304.599" gradientUnits="userSpaceOnUse">
<stop stopColor="#FE7654"/>
<stop offset="1" stopColor="#FC267C"/>
</linearGradient>
<linearGradient id="paint1_linear_216_51" x1="447" y1="37" x2="37" y2="447" gradientUnits="userSpaceOnUse">
<stop stopColor="#FE7654"/>
<stop offset="1" stopColor="#FC267C"/>
</linearGradient>
<linearGradient id="paint2_linear_216_51" x1="409.998" y1="93.5266" x2="113.864" y2="426.059" gradientUnits="userSpaceOnUse">
<stop stopColor="#FE7654"/>
<stop offset="1" stopColor="#FC267C"/>
</linearGradient>
</defs>
</svg>
