<svg width="393" height="866" viewBox="0 0 393 866" fill="none" xmlns="http://www.w3.org/2000/svg">
<path d="M-0.5 -2.5V438.5C-0.5 438.5 9.5 467.5 69 467.5C128.5 467.5 188 384.5 188 384.5C188 384.5 229 327.5 294.5 327.5C360 327.5 394 386 394 386V-2.5H-0.5Z" fill="#5C26DA"/>
<path d="M-0.5 -1.5V175C-0.5 175 17 146.5 87 125C111.5 117.475 150.633 101.5 173 71C195.367 40.5 186.5 -1.5 186.5 -1.5H-0.5Z" fill="#FFC93E"/>
<path d="M395 883V703C395 703 377.29 732.065 306.449 753.992C281.655 761.666 242.052 777.958 219.417 809.062C196.782 840.167 205.755 883 205.755 883H395Z" fill="#5C26DA"/>
<circle cx="262" cy="170" r="15" fill="#FFC93E"/>
<circle cx="373" cy="224" r="55" fill="#7D51E1"/>
<circle cx="299" cy="413" r="55" fill="#5C26DA"/>
</svg>
